<?xml version="1.0" encoding="utf-8"?>
<!-- Generator: Adobe Illustrator 23.0.4, SVG Export Plug-In . SVG Version: 6.00 Build 0)  -->
<svg version="1.1" id="Layer_1" xmlns="http://www.w3.org/2000/svg" xmlns:xlink="http://www.w3.org/1999/xlink" x="0px" y="0px"
	 viewBox="0 0 114 86" style="enable-background:new 0 0 114 86;" xml:space="preserve">
<style type="text/css">
	.st0{fill:#CACACA;}
	.st1{fill:#F0EFEF;}
	.st2{fill:none;stroke:#D3D3D3;stroke-width:0.5;stroke-miterlimit:10;}
	.st3{fill:none;stroke:#157BC0;stroke-width:2;stroke-linecap:round;stroke-linejoin:round;}
	.st4{fill:#157BC0;}
	.st5{fill:#EC801F;}
	.st6{fill:#D3D3D3;}
</style>
<title>Asset 3</title>
<g>
	<g id="price_guide">
		<rect y="11.8" class="st0" width="114" height="74.2"/>
		<rect x="7.1" y="18.1" class="st1" width="99.1" height="43.2"/>
		<rect x="7.1" y="66.5" class="st1" width="42.5" height="14"/>
		<line class="st2" x1="25.4" y1="18.1" x2="25.4" y2="61.4"/>
		<line class="st2" x1="12.9" y1="18.1" x2="12.9" y2="61.4"/>
		<line class="st2" x1="38" y1="18.1" x2="38" y2="61.4"/>
		<line class="st2" x1="50.5" y1="18.1" x2="50.5" y2="61.4"/>
		<line class="st2" x1="63" y1="18.1" x2="63" y2="61.4"/>
		<line class="st2" x1="75.6" y1="18.1" x2="75.6" y2="61.4"/>
		<line class="st2" x1="88.1" y1="18.1" x2="88.1" y2="61.4"/>
		<line class="st2" x1="100.6" y1="18.1" x2="100.6" y2="61.4"/>
		<polyline class="st3" points="12.9,56.1 25.4,41.2 38,48.3 50.5,41.9 62.9,27.6 75.6,36.8 85.4,28.7 101.1,32.7 		"/>
		<circle class="st4" cx="25.4" cy="42" r="2"/>
		<circle class="st4" cx="38" cy="48.1" r="2"/>
		<circle class="st4" cx="12.9" cy="56.1" r="2"/>
		<circle class="st4" cx="50.5" cy="42" r="2"/>
		<circle class="st4" cx="62.9" cy="28" r="2"/>
		<circle class="st4" cx="75.6" cy="36.3" r="2"/>
		<circle class="st4" cx="100.6" cy="32.4" r="2"/>
		<g>
			<rect x="9.8" y="68.3" class="st0" width="29.1" height="3"/>
		</g>
		<g>
			<rect x="9.8" y="72.1" class="st0" width="15.2" height="3"/>
		</g>
		<g>
			<rect x="9.8" y="75.8" class="st0" width="21.1" height="3"/>
		</g>
		<path class="st5" d="M93.1,60.7v1.1h-0.1v3.9h-10v-3.9h-0.1v-1.1h0.1V55c-7.2,1.4-12.5,7.7-12.5,15.1l0,0c0,1.9,0.4,3.9,1.1,5.7
			c1.2,2.8,0.6,6-1.6,8.2c-0.6,0.6-1.2,1.3-1.8,2H82c-2.7-3.3-2.2-8.1,1.1-10.8s8.1-2.2,10.8,1.1c2.3,2.8,2.3,6.9,0,9.8h13.8
			c-0.5-0.7-1.1-1.4-1.8-2c-2.1-2.2-2.7-5.4-1.5-8.2c3.1-7.9-0.7-16.8-8.6-20c-0.9-0.4-1.8-0.6-2.8-0.8v5.6H93.1z"/>
		<rect x="82.9" y="35.1" class="st6" width="10" height="7.8"/>
		<polygon class="st6" points="82.9,55 82.9,60.7 92.9,60.7 92.9,55 92.9,52.9 82.9,52.9 		"/>
		<rect x="82.9" y="20.1" class="st6" width="10" height="5"/>
		<rect x="82.9" y="44" class="st6" width="10" height="7.8"/>
		<rect x="82.9" y="26.2" class="st6" width="10" height="7.8"/>
		<rect x="82.9" y="61.8" class="st6" width="10" height="3.9"/>
		<polygon points="82.8,51.8 82.8,52.9 82.9,52.9 92.9,52.9 93.1,52.9 93.1,51.8 92.9,51.8 82.9,51.8 		"/>
		<polygon points="82.8,42.9 82.8,44 82.9,44 92.9,44 93.1,44 93.1,42.9 92.9,42.9 82.9,42.9 		"/>
		<polygon points="82.8,25.1 82.8,26.2 82.9,26.2 92.9,26.2 93.1,26.2 93.1,25.1 92.9,25.1 82.9,25.1 		"/>
		<polygon points="82.8,34 82.8,35.1 82.9,35.1 92.9,35.1 93.1,35.1 93.1,34 92.9,34 82.9,34 		"/>
		<polygon points="82.8,61.8 82.9,61.8 92.9,61.8 93.1,61.8 93.1,60.7 92.9,60.7 82.9,60.7 82.8,60.7 		"/>
		<path d="M88,73.4c-4.2-0.1-7.7,3.3-7.8,7.6c0,1.8,0.6,3.6,1.7,5h11.9c2.7-3.3,2.2-8.1-1.1-10.8C91.5,74.1,89.8,73.5,88,73.4
			L88,73.4z"/>
		<path d="M82.9,20.1h11.8L95.6,0H80.3l0.9,20.1H82.9z M91.2,2.9c0.7,0,1.3,0.6,1.3,1.4s-0.6,1.3-1.4,1.3S89.8,5,89.8,4.3
			c0,0,0,0,0,0C89.8,3.5,90.4,2.9,91.2,2.9C91.2,2.9,91.2,2.9,91.2,2.9z M91.1,8.7c0.7,0,1.3,0.6,1.3,1.4s-0.6,1.3-1.4,1.3
			c-0.7,0-1.3-0.6-1.3-1.4c0,0,0,0,0,0C89.7,9.3,90.3,8.7,91.1,8.7C91.1,8.7,91.1,8.7,91.1,8.7L91.1,8.7z M91,14.5
			c0.7,0,1.3,0.6,1.3,1.4s-0.6,1.3-1.4,1.3c-0.7,0-1.3-0.6-1.3-1.4c0,0,0,0,0,0C89.7,15.1,90.3,14.5,91,14.5
			C91,14.5,91,14.5,91,14.5L91,14.5z M84.9,2.9c0.7,0,1.3,0.6,1.3,1.4s-0.6,1.3-1.4,1.3c-0.7,0-1.3-0.6-1.3-1.4c0,0,0,0,0,0
			C83.5,3.4,84.1,2.8,84.9,2.9z M84.8,8.7c0.7,0,1.3,0.6,1.3,1.4s-0.6,1.3-1.4,1.3s-1.3-0.6-1.3-1.4c0,0,0,0,0,0
			C83.5,9.2,84.1,8.6,84.8,8.7C84.8,8.7,84.8,8.7,84.8,8.7L84.8,8.7z M84.7,14.5c0.7,0,1.3,0.6,1.3,1.4c0,0.7-0.6,1.3-1.4,1.3
			c-0.7,0-1.3-0.6-1.3-1.4C83.4,15,84,14.4,84.7,14.5C84.7,14.5,84.7,14.5,84.7,14.5L84.7,14.5z"/>
		<path class="st6" d="M84.8,11.4c0.7,0,1.4-0.6,1.4-1.3c0-0.7-0.6-1.4-1.3-1.4c-0.7,0-1.4,0.6-1.4,1.3c0,0,0,0,0,0
			C83.4,10.7,84,11.3,84.8,11.4C84.8,11.4,84.8,11.4,84.8,11.4z"/>
		<path class="st6" d="M84.9,5.6c0.7,0,1.4-0.6,1.4-1.3c0-0.7-0.6-1.4-1.3-1.4c-0.7,0-1.4,0.6-1.4,1.3c0,0,0,0,0,0
			C83.5,4.9,84.1,5.5,84.9,5.6z"/>
		<path class="st6" d="M84.7,17.1c0.7,0,1.4-0.6,1.4-1.3c0-0.7-0.6-1.4-1.3-1.4c-0.7,0-1.4,0.6-1.4,1.3c0,0,0,0,0,0
			C83.4,16.5,84,17.1,84.7,17.1C84.7,17.1,84.7,17.1,84.7,17.1z"/>
		<path class="st6" d="M91.1,11.4c0.7,0,1.4-0.6,1.4-1.3c0-0.7-0.6-1.4-1.3-1.4c-0.7,0-1.4,0.6-1.4,1.3
			C89.7,10.8,90.3,11.4,91.1,11.4C91.1,11.4,91.1,11.4,91.1,11.4z"/>
		<path class="st6" d="M91.1,5.6c0.7,0,1.4-0.6,1.4-1.3s-0.6-1.4-1.3-1.4c-0.7,0-1.4,0.6-1.4,1.3c0,0,0,0,0,0
			C89.8,5,90.4,5.6,91.1,5.6z"/>
		<path class="st6" d="M91,17.2c0.7,0,1.4-0.6,1.4-1.3c0-0.7-0.6-1.4-1.3-1.4c-0.7,0-1.4,0.6-1.4,1.3C89.6,16.6,90.2,17.2,91,17.2
			C91,17.2,91,17.2,91,17.2z"/>
	</g>
</g>
</svg>
