<?xml version="1.0" encoding="utf-8"?>
<!-- Generator: Adobe Illustrator 23.0.4, SVG Export Plug-In . SVG Version: 6.00 Build 0)  -->
<svg version="1.1" id="Layer_1" xmlns="http://www.w3.org/2000/svg" xmlns:xlink="http://www.w3.org/1999/xlink" x="0px" y="0px"
	 viewBox="0 0 114 86" style="enable-background:new 0 0 114 86;" xml:space="preserve">
<style type="text/css">
	.st0{fill:#CACACA;}
	.st1{fill:#E6E6E6;}
	.st2{fill:#D3D3D3;}
	.st3{fill:#EC801F;}
	.st4{fill:#F0EFEF;}
	.st5{fill:#F68720;}
	.st6{fill:#1C2930;}
	.st7{fill:#FFFFFF;}
	.st8{fill:#187BC0;}
</style>
<title>Asset 13</title>
<g>
	<g id="synth">
		<rect y="12.6" class="st0" width="114" height="73.4"/>
		<rect x="30.6" y="54.3" class="st1" width="51.3" height="8.6"/>
		<rect x="34.5" y="62.9" class="st1" width="43.6" height="23.1"/>
		<rect x="34.5" y="62.9" class="st2" width="43.6" height="3.7"/>
		<rect x="54.3" y="65.3" class="st2" width="3.9" height="20.7"/>
		<rect x="62" y="65.3" class="st2" width="3.9" height="20.7"/>
		<rect x="69.7" y="65.3" class="st2" width="3.9" height="20.7"/>
		<rect x="46.7" y="65.3" class="st2" width="3.9" height="20.7"/>
		<rect x="39" y="65.3" class="st2" width="3.9" height="20.7"/>
		<rect x="25.7" y="24.2" class="st3" width="61.2" height="26.4"/>
		<rect x="29.2" y="33.7" class="st4" width="54.2" height="17"/>
		<rect x="33.4" y="33.7" class="st5" width="1.5" height="17"/>
		<rect x="39" y="33.7" class="st5" width="1.5" height="17"/>
		<rect x="44.5" y="33.7" class="st5" width="1.5" height="17"/>
		<rect x="50.1" y="33.7" class="st5" width="1.5" height="17"/>
		<rect x="55.6" y="33.7" class="st5" width="1.5" height="17"/>
		<rect x="61.1" y="33.7" class="st5" width="1.5" height="17"/>
		<rect x="66.7" y="33.7" class="st5" width="1.5" height="17"/>
		<rect x="72.2" y="33.7" class="st5" width="1.5" height="17"/>
		<rect x="77.8" y="33.7" class="st5" width="1.5" height="17"/>
		<rect x="32.5" y="33.5" class="st6" width="3.3" height="11.1"/>
		<rect x="38.1" y="33.5" class="st6" width="3.3" height="11.1"/>
		<rect x="71.3" y="33.5" class="st6" width="3.3" height="11.1"/>
		<rect x="76.9" y="33.4" class="st6" width="3.3" height="11.1"/>
		<rect x="49.2" y="33.5" class="st6" width="3.3" height="11.1"/>
		<rect x="54.7" y="33.5" class="st6" width="3.3" height="11.1"/>
		<rect x="60.2" y="33.5" class="st6" width="3.3" height="11.1"/>
		<rect x="92.4" y="46.8" class="st1" width="21.6" height="39.2"/>
		<rect x="97.2" y="19.6" class="st1" width="16.8" height="27.1"/>
		<path class="st7" d="M101.9,33.7c0,5.5,4.5,10,10,10c0.7,0,1.4-0.1,2.1-0.2v-7.4c-1.3,1.2-3.3,1-4.5-0.3c-1.2-1.3-1-3.3,0.3-4.5
			c1.2-1.1,3-1.1,4.2,0v-7.4c-5.4-1.2-10.7,2.3-11.9,7.7C102,32.3,101.9,33,101.9,33.7z"/>
		<path class="st7" d="M108.7,33.7c0,1.8,1.4,3.2,3.2,3.2c0.8,0,1.5-0.3,2.1-0.8v-4.8c-1.3-1.2-3.3-1-4.5,0.3
			C109,32.2,108.7,32.9,108.7,33.7z"/>
		<circle class="st7" cx="104" cy="58.6" r="7.3"/>
		<circle class="st1" cx="104" cy="58.6" r="2.3"/>
		<circle class="st7" cx="104" cy="75.6" r="7.3"/>
		<circle class="st1" cx="104" cy="75.6" r="2.3"/>
		<rect y="83.1" class="st2" width="25.2" height="2.9"/>
		<rect y="64.4" class="st2" width="25.2" height="2.9"/>
		<rect y="70" class="st2" width="4.3" height="10.3"/>
		<rect x="14.5" y="70" class="st2" width="5.2" height="10.3"/>
		<rect x="22.1" y="70" class="st2" width="3.1" height="10.3"/>
		<rect x="6.8" y="70" class="st2" width="5.2" height="10.3"/>
		<rect x="4.3" y="70" class="st1" width="2.5" height="10.3"/>
		<rect x="19.6" y="70" class="st1" width="2.5" height="10.3"/>
		<rect x="11.9" y="70" class="st1" width="2.5" height="10.3"/>
		<polygon class="st1" points="0,67.3 0,70 4.3,70 6.8,70 11.9,70 14.5,70 19.6,70 22.1,70 25.2,70 26.3,70 26.3,67.3 25.2,67.3 		
			"/>
		<polygon class="st1" points="19.6,80.4 14.5,80.4 11.9,80.4 6.8,80.4 4.3,80.4 0,80.4 0,83.1 25.2,83.1 26.3,83.1 26.3,80.4 
			25.2,80.4 22.1,80.4 		"/>
		<rect y="40.5" class="st1" width="20.7" height="23.9"/>
		<circle class="st7" cx="10.4" cy="54.3" r="6.7"/>
		<circle class="st1" cx="10.4" cy="54.3" r="1.9"/>
		<rect x="5.9" y="25.8" class="st7" width="8.4" height="14.7"/>
		<rect x="3.4" y="25.8" class="st1" width="2.5" height="14.7"/>
		<rect x="6.8" y="34.6" class="st0" width="6.6" height="4.8"/>
		<circle class="st0" cx="8.3" cy="28.3" r="1"/>
		<circle class="st0" cx="8.3" cy="32" r="1"/>
		<circle class="st0" cx="11.8" cy="28.3" r="1"/>
		<circle class="st0" cx="11.8" cy="32" r="1"/>
		<path class="st8" d="M57.1,0c-0.8,0-1.5,0.7-1.5,1.5v16.7c0,0.8,0.7,1.5,1.5,1.5s1.5-0.7,1.5-1.5V1.5C58.6,0.7,57.9,0,57.1,0z"/>
		<path class="st8" d="M69.4,3.9c-0.8-0.2-1.6,0.2-1.9,1c0,0,0,0,0,0l-4,13.2c-0.2,0.8,0.2,1.6,1,1.9c0.8,0.2,1.6-0.2,1.9-1l4-13.2
			C70.7,5,70.2,4.2,69.4,3.9C69.4,3.9,69.4,3.9,69.4,3.9z"/>
		<path class="st8" d="M80,9.7c-0.7-0.5-1.6-0.4-2.1,0.3L72,17.8c-0.5,0.7-0.4,1.6,0.3,2.1s1.6,0.4,2.1-0.3l0,0l5.9-7.8
			C80.7,11.2,80.6,10.2,80,9.7z"/>
		<path class="st8" d="M46.6,4.9c-0.2-0.8-1.1-1.2-1.9-1c-0.8,0.2-1.2,1.1-1,1.9l0,0l4,13.2c0.2,0.8,1.1,1.2,1.9,1
			c0.8-0.2,1.2-1.1,1-1.9L46.6,4.9z"/>
		<path class="st8" d="M36.3,10c-0.5-0.7-1.4-0.8-2.1-0.3c-0.7,0.5-0.8,1.4-0.3,2.1l5.9,7.8c0.5,0.7,1.4,0.8,2.1,0.3
			c0.7-0.5,0.8-1.4,0.3-2.1L36.3,10z"/>
	</g>
</g>
</svg>
