<svg xmlns="http://www.w3.org/2000/svg" viewBox="0 0 511.5 292.368"><defs><style>.cls-1{fill:#dfdfdf;}.cls-2{fill:#f5861f;}.cls-3{fill:#e9eaea;}.cls-4{fill:#117bc0;}.cls-5{fill:#1c2930;}</style></defs><title>Asset 4</title><g id="Layer_2" data-name="Layer 2"><g id="Layer_1-2" data-name="Layer 1"><path class="cls-1" d="M430.2,271.909c-5.653-1.66-9.695-5.56-13.641-9.653-.931-.965-2.4-1.388-3.476-2.239-6.686-5.276-13.1-10.929-20.065-15.805-5.232-3.663-9.971-7.906-15.134-11.631-5.112-3.69-9.951-7.757-15-11.731-.728,3.541.454,6.8.086,10.082a55.2,55.2,0,0,0,.162,10.811c.283,3.377-.486,6.829-.39,10.237.183,6.561-.2,13.113-.158,19.653.032,5.406-.089,10.854.376,16.266.222,2.593-1.011,3.935-3.676,3.938-2.248,0-4.5-.011-6.744.009-.446,0-1.047-.224-1.19.522h-.81c-.513-.9-1.425-.741-2.224-.792a63.645,63.645,0,0,0-9.072.178c-3.605.279-7.261-.144-10.895-.156-.985,0-2.129-.189-2.908.77h-2.968c-1.921-1.558-4.165-.556-6.253-.779-2.631-.281-5.262.061-7.929-.122a123.681,123.681,0,0,0-16.159.242,76.564,76.564,0,0,1-10.294-.33c-1.9-.135-4.052.754-5.735-.9l.2-.54a30.165,30.165,0,0,0,.768-9.622,37.868,37.868,0,0,1-.261-8.285c.627-5.153-.263-10.253-.168-15.388.081-4.358,1.13-8.747.187-13.107-.58-2.681.753-5.308.1-7.963-.815-3.341-.555-6.713-.36-10.086a44.128,44.128,0,0,0,.3-5.75c-.362-4.919.536-9.841-.192-14.765-.206-1.4.644-2.882.173-4.371l.052-.535a12.355,12.355,0,0,1,7.222-.644c6.182.97,12.248-.365,18.359-.154,1.662.058,3.452-.27,4.63,1.4a13.238,13.238,0,0,0-.333,1.428c-.811,6.519.393,13.072-.289,19.585-.429,4.1,1.138,8.127.038,12.266-.99,3.731.032,5.145,3.846,5.22a131.625,131.625,0,0,0,17.476-.363c2.289-.259,3.867-.548,3.81-3.191-.033-1.52-.239-3.039-.211-4.556.125-6.853.658-13.685-.226-20.557-.369-2.866.744-5.877-.127-8.819l-.267-1.063c1.37-.294,2.473-1.407,4.052-1.159.656.1.283-.558.1-.732-1.462-1.382-2.771-3.067-4.483-4.015-4.422-2.45-7.963-6.033-12.055-8.9-3.117-2.184-5.706-5.143-8.883-7.219-2.926-1.912-5.608-4.1-8.357-6.214-3.664-2.815-7.114-5.908-10.752-8.758-2.948-2.31-6.095-4.353-8.836-6.943a16.373,16.373,0,0,0-5.018-3.045c.339-2.784-1.891-3.98-3.645-4.991-7.759-4.473-13.742-11.193-21.009-16.253-3.92-2.73-7.188-6.405-11.777-8.166q-6.289-4.771-12.575-9.546c-3.258-2.489-6.543-4.948-9.724-7.532-2.366-1.922-4.327-4.5-6.938-5.924-3.158-1.721-5.127-4.71-8.142-6.487a2.331,2.331,0,0,1-.954-2.381l.843-.964c2.04-1.518,3.071-3.824,4.473-5.826,3.695-5.275,8.553-9.65,11.777-15.283,1.709-2.174,3.451-4.324,5.113-6.532.808-1.074,1.672-1.137,2.919-.818,2.377.61,3.3,2.893,5.165,4.136,4.344,2.9,8.721,5.822,12.364,9.648-4.2,5.261-8.44,10.494-12.595,15.792-2.58,3.289-2.139,5.578,1.337,7.9.854.572,1.719,1.132,2.547,1.74,1.468,1.076,2.853,1.036,4.039-.365a115.192,115.192,0,0,0,7.549-9.22c2.016-2.96,5.193-5.145,6.063-8.878,2.161,2.363,4.968,3.876,7.532,5.709l.015.126a4.552,4.552,0,0,0-.684.413c-5.828,5.028-9.737,11.62-14.326,17.655-.837,1.1-.227,2.2.831,2.853a35.36,35.36,0,0,1,5.231,4.191,2.335,2.335,0,0,0,3.75-.241c3.082-3.827,6.261-7.593,9.074-11.612,1.538-2.2,3.767-4.015,4.341-6.839l.348.236c.934,1.482,2.665,1.889,3.943,2.92,5.056,4.077,10.168,8.084,15.259,12.118l.275.144c0,.057-.008.114-.011.171-2.118.265-2.829,2.2-4.061,3.484-3.155,3.3-5.013,7.53-8.142,10.942-4.268,4.654-3.955,4.937.838,9a12.856,12.856,0,0,0,1.292,1.179c1.642,1.038,3.543,2.41,5.139.371,4.649-5.943,9.09-12.047,13.613-18.088l6.9,5.017a.622.622,0,0,1,.013.2c-1.686,2.04-3.955,3.453-5.38,5.858a44.507,44.507,0,0,1-6.428,8.213c-3.468,3.578-4.295,6.131-.929,8.649a56.524,56.524,0,0,0,4.962,3.184,1.749,1.749,0,0,0,2.31-.415c1.377-1.466,2.694-3,4.148-4.382,2.026-1.931,2.443-5.063,4.588-6.692a21.083,21.083,0,0,0,5.719-7.281,20.376,20.376,0,0,0,7.208,5.192,2.785,2.785,0,0,0-2.242,1.275c-4,5.339-7.962,10.7-12.044,15.974-1.478,1.909-1.287,3.4.507,4.842,1.186.95,2.376,1.9,3.583,2.819a3.89,3.89,0,0,0,5.781-.784c2.262-2.9,4.617-5.724,6.823-8.663,2.022-2.693,3.9-5.494,5.838-8.248l.122-.03c1.422,1.2,2.237,3.076,4.119,3.746a22.611,22.611,0,0,1,6.279,3.979c3.423,2.7,6.395,5.958,10.148,8.249l1.155.578a1.132,1.132,0,0,0,0,.154,4.947,4.947,0,0,0-2.3,1.981q-5.318,6.715-10.607,13.455c-2.373,3.015-2.295,4.154.1,7.022,1.127,1.352,2.784,1.747,4.085,2.709,2.116,1.564,3.112.666,4.352-1.17a76.3,76.3,0,0,1,5.932-7.571,70.024,70.024,0,0,0,6.063-7.694,3.258,3.258,0,0,0,.5-2.553l7.262,6.043c-5.292,5.554-9.111,12.246-13.985,18.125-.835,1.007-1.153,2.249.164,3.314,1.218.984,2.374,2.044,3.584,3.037,2.711,2.227,4.305,2.277,6.527-.284,2.739-3.16,5.325-6.466,7.79-9.846,1.721-2.359,3.987-4.335,5.117-7.117a36.73,36.73,0,0,1,4.951,3.309,85.85,85.85,0,0,0,9.794,8.34c2.082,1.412,4.419,2.5,6.275,4.248-2.406,0-4.655.636-5.858,2.81-2.823,5.1-7.008,9.141-10.428,13.771-1.025,1.387-1.231,2.528.036,3.616,1.9,1.631,3.895,3.157,5.921,4.63,1.514,1.1,2.794.682,3.9-.807,2.27-3.046,4.873-5.877,6.866-9.091,1.982-3.195,5.61-5.241,6.371-9.246,2.032,2.5,5.084,3.668,7.476,5.7l-.03.2c-1.06-.01-2.2.32-2.478,1.284-.934,3.226-3.374,5.35-5.485,7.643-2.563,2.784-3.961,6.393-6.83,8.958-1.352,1.208-.63,2.715.714,3.633a22.818,22.818,0,0,1,4,3.367c1.818,1.974,4.06,1.816,5.453-.525,1.991-3.344,4.735-6.075,7.12-9.095,2.12-2.686,4.7-5.042,5.75-8.453l6.886,5.37a.768.768,0,0,1,.023.185c-.784.151-1.162.789-1.6,1.349-3.226,4.106-6.29,8.352-9.715,12.285-3.917,4.5-3.917,6.673.67,10.43,3.424,2.805,5.066,2.6,7.8-.985,2.5-3.287,5.008-6.572,7.484-9.879,1.547-2.067,3.043-4.174,4.562-6.262l.367.194.375.3-.037-.009q7.3,5.838,14.592,11.676c2.712,2.169,2.877,3.332.894,6.191-3.119,4.5-7.217,8.252-9.887,13.088l-.181.181a35.074,35.074,0,0,0-6.746,8.469l.02-.014-.221.3C433.031,268.374,430.924,269.629,430.2,271.909Z"/><path class="cls-2" d="M275.5,154.48c-.082-.016-.163-.036-.243-.059a3.627,3.627,0,0,0-2.894-.753c-2.634.123-5.273.6-7.891.494a201.259,201.259,0,0,0-21.2-.233c-4.473.283-8.959-.476-13.383-.117-7.534.612-15.031-.683-22.54-.024-5.091.447-10.152-.416-15.264-.208-7.52.3-15.058.387-22.6.159-7.2-.217-14.426.271-21.64.449l.031.005c-3.177-.8-6.382-.366-9.594-.327-6.415.078-12.837.334-19.243-.473-2.193-.277-4.255,1.161-6.587.765-7.7-1.306-15.445-.294-23.171-.154-1.756-1.133-1.212-2.88-1.236-4.5-.1-7.044-.168-14.089-.393-21.129-.092-2.906,1.06-4.4,4-4.109,4.895.487,9.8-.189,14.643.1,4.431.266,8.822-.214,13.223.069a11.671,11.671,0,0,1,2.519-.178c6.463.932,12.93-.266,19.39.1a94.442,94.442,0,0,0,11.6-.018c3.55-.235,7.146,1.032,10.748.079a.821.821,0,0,0,.217.075,2.344,2.344,0,0,0,2.493,1.4q6.089-.162,12.178-.271a1.819,1.819,0,0,0,1.666-.924c4.822-.558,9.639-.113,14.453.117,1.31.062,2.716.365,3.493-.951a5.08,5.08,0,0,0,.3-4.77c-.7-1.464-2.3-.673-3.543-.676-.532,0-1.063-.015-1.594-.029a51.423,51.423,0,0,0-7.634-.1c-1.82.231-3.419.366-4.981-.656l-.08-.335a22.584,22.584,0,0,0,.007-8.152.656.656,0,0,0,.091-.147,41.32,41.32,0,0,1,10.8-.489c3.971.2,7.976-.15,11.933.159,1.659.129,4.382-.367,4.661,2.282a91.354,91.354,0,0,1,.284,11c-.028,1.727.688,2.385,2.24,2.459,4.47.212,8.943.611,13.411.566,5.332-.053,10.661-.49,15.991-.761,4.589,1.761,7.857,5.436,11.777,8.166,7.267,5.06,13.25,11.78,21.009,16.253,1.754,1.011,3.984,2.207,3.645,4.991ZM123.723,144.2c2.865.229,4.068-1.418,4.338-3.623a5.072,5.072,0,0,0-4.909-5.534c-2.236-.048-4.209,2.079-4.269,4.6A4.71,4.71,0,0,0,123.723,144.2Zm22.245-4.541a4.75,4.75,0,0,0-4.454-4.813c-2.533.009-4.434,2.4-4.431,5.566,0,2.051,2.159,4.03,4.41,4.046A4.827,4.827,0,0,0,145.968,139.659Zm12.813,4.326c3.612-.26,5.5-2,5.265-4.853-.179-2.209-2.987-4.362-5.53-4.061-2.192.259-3.721,1.427-3.618,3.845C155.044,142.346,156.5,144.15,158.781,143.985ZM243.927,140c.007-3.013-1.971-4.814-5.462-4.633-2.52.13-3.262,2.352-3.533,4.26-.332,2.342,1.892,4.844,3.731,4.842C241.192,144.466,243.922,142.147,243.927,140Zm-133.857-.4c.006-2.824-1.851-4.422-5.2-4.478-1.861-.03-3.787,2.678-3.589,5.525.173,2.49,2.1,3.266,4.286,3.356A4.191,4.191,0,0,0,110.07,139.6Z"/><path class="cls-3" d="M163.773,124.42c-3.6.953-7.2-.314-10.748-.079a94.442,94.442,0,0,1-11.595.018c-6.46-.367-12.927.831-19.39-.1a11.671,11.671,0,0,0-2.519.178c-1.122-4.479-.691-9.06-.755-13.589-.1-7.36.2-14.725.186-22.088-.006-3.687-.6-7.385-.45-11.059.293-7.172-.2-14.347.386-21.524.283-3.493-.339-7.051-.424-10.583-.082-3.4,1.006-4.025,4.335-4.027a118.364,118.364,0,0,0,14.037-.366,18.393,18.393,0,0,1,5.347.228c4.8.862,9.5-.092,14.242-.461,2.535-.2,5.189-.116,7.428,1.529l-.11.389a1.452,1.452,0,0,0-.532,1.688c.974,3.935-.154,7.908.286,11.855.391,3.515-.772,6.964-.306,10.563a63.166,63.166,0,0,1,.088,11.133c-.193,3.931-.458,7.836.474,11.709l.06.671c-.271,4.131-.98,8.29-.711,12.386.392,5.986-.1,11.945.091,17.912.034,1.1-.162,2.234.569,3.207ZM127,53.5l.025-.035c-1.013,2.111-2.3,4.262.845,5.764l-.012-.012c1.955,2.617,4.559,2,7.1,1.329,2.325-.613,2.762-2.726,3.269-4.662.729-2.783-1.34-5.926-4.416-6.85a5.323,5.323,0,0,0-6.427,3.414.2.2,0,0,0-.052.19Zm26.1,63.458c2.239-.254,4.848.032,4.424-3.414-.969-7.87-.389-15.743-.18-23.607.085-3.2-.636-4.445-3.9-4.406-1.7.02-3.443.577-5.076.317-6.6-1.055-13.161-.445-19.737.062-1.131.088-2.294.338-2.341,1.718q-.314,9.262-.478,18.528c-.047,2.455.185,4.922.023,7.366-.106,1.6.409,2.607,1.887,2.875a32.56,32.56,0,0,0,5.465.537C139.823,116.993,146.46,116.956,153.1,116.956Zm3.95-60.935c0-3.906-2.529-7.1-5.612-7.1-3.694.005-6.834,2.929-6.814,6.347.017,2.782,3.346,6.081,6.152,6.1C154.322,61.387,157.049,59.064,157.047,56.021ZM132.724,77.038c3.453-.007,6.006-2.926,5.9-6.741-.1-3.4-2.934-5.671-7.139-5.706-2.584-.022-5.226,3.217-5.245,6.431C126.217,74.195,129.29,77.044,132.724,77.038Zm17.723-.283c3.852-.1,6.8-2.493,6.711-5.443q-.2-6.651-7.518-6.464c-2.508.065-4.762,2.95-4.748,6.076C144.9,73.832,147.756,76.825,150.447,76.755Z"/><path class="cls-4" d="M64.478,281.789c0-7.108-.268-14.229.079-21.321.311-6.359.077-12.72.575-19.088.422-5.406-.348-10.894-.365-16.347-.026-8.345.618-16.723.045-25.023-.33-4.781.727-9.455.033-14.234-.485-3.341.044-6.834.176-10.257a2.142,2.142,0,0,1,2.53-2.051c3.281.438,6.5-.435,9.753-.15,1.68.148,2.284,1.007,2.323,2.759.174,7.791.031,15.589.031,23.372,0,5.012.058,10.056-.024,15.084-.08,4.921.244,9.848.191,14.77-.066,6.231-.88,12.5-.377,18.679.658,8.077-.312,16.131.483,24.219.409,4.171-.328,8.572-.334,12.878,0,.314-.011.629-.011.944,0,3.562-.755,4.476-4.379,4.142-2.528-.234-4.993.211-7.494.09-2.047-.1-3.053-1.011-3.03-3.071.02-1.8,0-3.6,0-5.394Z"/><path class="cls-4" d="M34.257,176.2c-.03,5.591-1.606,10.938-2.578,16.373-.871,4.867-1.2,9.869-2.416,14.6-1.934,7.546-2.5,15.3-4.332,22.854a129.514,129.514,0,0,0-3.47,18.858c-.509,5.717-2.124,11.19-2.679,16.9-.643,6.613-2.47,13.116-3.858,19.65-1.036,4.878-2.46,5.638-7.513,4.623-1.67-.335-3.419.415-5.17-.092-1.693-.49-2.717-1.3-2.019-3.153s.315-3.823.657-5.7c1.3-7.115,2.751-14.2,4.006-21.325,1.152-6.533,2.035-13.114,3.2-19.645,1.376-7.731,2.993-15.419,4.374-23.15,1.323-7.4,2.107-14.918,3.866-22.207.841-3.489.779-7.134,2.19-10.523,1.073-2.575.486-5.571,1.657-8.218.639-1.445,1.434-2.251,3.094-2.2,2.949.082,5.861-.821,8.844-.295A2.252,2.252,0,0,1,34.257,176.2Z"/><path class="cls-4" d="M51.431,290.158c-1.694.108-3.388.312-5.082.3-3.8-.019-3.545-3.3-3.649-5.474-.266-5.612.135-11.253.069-16.88-.053-4.525.11-9.066-.044-13.564-.192-5.6.2-11.187-.023-16.8-.279-7.1.425-14.231.677-21.35a6.721,6.721,0,0,0-.252-2.114c-.982-3.292-.513-6.573-.37-9.93.327-7.631.1-15.285.132-22.929.008-1.884.1-3.774.273-5.65a2.437,2.437,0,0,1,2.919-2.447,46.865,46.865,0,0,0,8.855.026c1.569-.088,2.119.824,2.317,2.325a73.917,73.917,0,0,1,.281,16.571c-.493,5.239.059,10.436-.018,15.612-.065,4.371-.946,8.934.324,13.385a16.18,16.18,0,0,1,.067,5.181c-.315,5.621-.114,11.249-.266,16.865-.107,3.945.107,7.885-.279,11.866-.468,4.841.307,9.791.375,14.7.079,5.716.03,11.436-.077,17.152-.041,2.145-1.178,3.409-3.524,3.242-.894-.064-1.8-.011-2.7-.011Z"/><path class="cls-2" d="M313.533,130.489l.052.277a21.083,21.083,0,0,1-5.719,7.281c-2.145,1.629-2.562,4.761-4.588,6.692-1.454,1.386-2.771,2.916-4.148,4.382a1.749,1.749,0,0,1-2.31.415,56.524,56.524,0,0,1-4.962-3.184c-3.366-2.518-2.539-5.071.929-8.649a44.507,44.507,0,0,0,6.428-8.213c1.425-2.405,3.694-3.818,5.38-5.858l8.711,6.543-.013-.014Z"/><path class="cls-2" d="M396.454,195.2l1,.848c1.121,2.474,4.014,2.654,5.7,4.4l.112.435c-.761,4-4.389,6.051-6.371,9.246-1.993,3.214-4.6,6.045-6.866,9.091-1.11,1.489-2.39,1.908-3.9.807-2.026-1.473-4.022-3-5.921-4.63-1.267-1.088-1.061-2.229-.036-3.616,3.42-4.63,7.605-8.67,10.428-13.771C391.8,195.833,394.048,195.194,396.454,195.2Z"/><path class="cls-2" d="M297.6,118.271c.028.049.057.1.086.147-4.523,6.041-8.964,12.145-13.613,18.088-1.6,2.039-3.5.667-5.139-.371a12.856,12.856,0,0,1-1.292-1.179c-4.793-4.059-5.106-4.342-.838-9,3.129-3.412,4.987-7.642,8.142-10.942,1.232-1.288,1.943-3.219,4.061-3.484C292.474,113.008,294.361,116.5,297.6,118.271Z"/><path class="cls-2" d="M320.793,135.958l.292.158.573.283-.014-.01c1.749,2.94,5.31,3.855,7.294,6.532l.1.252c-1.94,2.754-3.816,5.555-5.838,8.248-2.206,2.939-4.561,5.765-6.823,8.663a3.89,3.89,0,0,1-5.781.784c-1.207-.923-2.4-1.869-3.583-2.819-1.794-1.439-1.985-2.933-.507-4.842,4.082-5.273,8.048-10.635,12.044-15.974A2.785,2.785,0,0,1,320.793,135.958Z"/><path class="cls-2" d="M434.987,225.817l.075.266c-1.519,2.088-3.015,4.195-4.562,6.262-2.476,3.307-4.982,6.592-7.484,9.879-2.73,3.586-4.372,3.79-7.8.985-4.587-3.757-4.587-5.931-.67-10.43,3.425-3.933,6.489-8.179,9.715-12.285.439-.56.817-1.2,1.6-1.349Z"/><path class="cls-2" d="M375.345,179.053a1.139,1.139,0,0,0,.089.247c-1.13,2.782-3.4,4.758-5.117,7.117-2.465,3.38-5.051,6.686-7.79,9.846-2.222,2.561-3.816,2.511-6.527.284-1.21-.993-2.366-2.053-3.584-3.037-1.317-1.065-1-2.307-.164-3.314,4.874-5.879,8.693-12.571,13.985-18.125a.566.566,0,0,1,.2.014Z"/><path class="cls-2" d="M253.34,83.463a2.3,2.3,0,0,1,.086.227c-.87,3.733-4.047,5.918-6.063,8.878a115.192,115.192,0,0,1-7.549,9.22c-1.186,1.4-2.571,1.441-4.039.365-.828-.608-1.693-1.168-2.547-1.74-3.476-2.324-3.917-4.613-1.337-7.9,4.155-5.3,8.392-10.531,12.6-15.792a1.481,1.481,0,0,0,.2.01C248.087,78.31,250.327,81.383,253.34,83.463Z"/><path class="cls-2" d="M418.824,213.324l.133.266c-1.047,3.411-3.63,5.767-5.75,8.453-2.385,3.02-5.129,5.751-7.12,9.095-1.393,2.341-3.635,2.5-5.453.525a22.818,22.818,0,0,0-4-3.367c-1.344-.918-2.066-2.425-.714-3.633,2.869-2.565,4.267-6.174,6.83-8.958,2.111-2.293,4.551-4.417,5.485-7.643.28-.964,1.418-1.294,2.478-1.284Z"/><path class="cls-2" d="M358.665,165.637l.31.391a3.258,3.258,0,0,1-.5,2.553,70.024,70.024,0,0,1-6.063,7.694,76.3,76.3,0,0,0-5.932,7.571c-1.24,1.836-2.236,2.734-4.352,1.17-1.3-.962-2.958-1.357-4.085-2.709-2.39-2.868-2.468-4.007-.1-7.022q5.3-6.734,10.607-13.455a4.947,4.947,0,0,1,2.3-1.981Z"/><path class="cls-2" d="M269.058,95.714a.7.7,0,0,0,.132.231c-.574,2.824-2.8,4.642-4.341,6.839-2.813,4.019-5.992,7.785-9.074,11.612a2.335,2.335,0,0,1-3.75.241,35.36,35.36,0,0,0-5.231-4.191c-1.058-.657-1.668-1.752-.831-2.853,4.589-6.035,8.5-12.627,14.326-17.655a4.552,4.552,0,0,1,.684-.413C264.08,91.05,266.4,93.6,269.058,95.714Z"/><path class="cls-3" d="M430.175,207.834l-.233-.227a8.661,8.661,0,0,1-2.162-7.094c.386-2.676,2.487-4.26,3.258-6.6l-.032.012.2-.333,1.124-1.575a12.656,12.656,0,0,0,4.345-4.8c2.913-5.1,8.385-7.658,13.661-3.631,3.4,2.591,6.3,5.838,10.29,7.623l-.013-.015c4.2,3.559,8.42,7.1,12.6,10.685,2.294,1.966,4.672,3.919,4.154,7.47-.362,2.478-2.038,4.221-3.44,6.1-2.243,3-4.571,5.933-6.864,8.894l-.212.258c-1.46,1.337-2.549,3.077-4.37,4.022l.033-.026a8.278,8.278,0,0,1-7.9-1.719,92.067,92.067,0,0,0-13.371-10.124l-.78-.77-.826-.574.013.016-1.351-.84.012.019-.839-.574L436.425,213A16.189,16.189,0,0,0,430.175,207.834Z"/><path class="cls-3" d="M381,161.052q.363.364.727.727a6.534,6.534,0,0,0,4.676,3.79l-.016-.026.316.242.713.578c.477.526.957,1.049,1.43,1.579,2.935,3.284,7.169,4.873,10.3,7.912a20.431,20.431,0,0,0,6.684,4.63l.525.438c2.073,2.411,1.893,3.422-1.148,6.429l-.085-.01-.066.054-1.349.02-.778-.368c-.819-.61-1.688-1.163-2.449-1.839-5.574-4.956-11.61-9.324-17.528-13.842l-.24-.191-.331-.245-.481-.3-.839-.566.013.016c-1.833-1.669-3.6-3.42-5.944-4.406l-.235-.176c-3.6-3.042-6.762-6.534-10.691-9.274-5.681-3.961-10.933-8.534-16.418-12.781-4.521-3.5-9.373-6.567-13.552-10.518-4.227-4-9.075-7.186-13.9-10.4l-.788-.743-1.1-.893-.8-.723c-2.179-1.65-1.877-3.381,0-4.946,1.722-1.432,3.347-.827,4.694.69,1.306,1.471,3.036,2.332,4.594,3.45,2.994,2.148,5.881,4.445,8.782,6.719,2.787,2.186,5.536,4.421,8.3,6.635l1.051.708c3.434,2.365,6.459,5.249,9.726,7.825,3.095,2.441,6.154,4.9,9.451,7.064l-.01-.018A99.618,99.618,0,0,0,381,161.052Z"/><path class="cls-3" d="M290.572,77.256l-.767,1.054-.648.819-.169.24q-.3.409-.6.818l.019-.01a27.885,27.885,0,0,0-6.518,8.131l-.188.247-.892,1.1-.467.489c-1.077.8-2.2,1.365-3.275.067s-.011-2.175.673-3.149c1.2-1.707,2.342-3.452,3.51-5.18l.486-.506c2.781-1.8,4.125-4.777,6-7.318l.72-.853c2.7-3.411,5.427-6.8,8.1-10.242.639-.823,1.3-1.08,2.169-.516.821.533,1.362,1.266.725,2.238-.88,1.344-1.879,2.609-2.776,3.942C294.707,71.552,292.124,74.039,290.572,77.256Z"/><path class="cls-3" d="M270.383,80.782l-.065-.051-.081.018-.91-.371-.787-.418-.309-.225-.763-.589c-2.705-2.609-1.695-5.458-.538-8.317l-.018.013c2.181-1.34,4.52-2.476,6.988-1.108a5.868,5.868,0,0,1,2.757,7.236A6.005,6.005,0,0,1,270.383,80.782Z"/><path class="cls-3" d="M261.121,62.089c.012.147.024.293.035.44a15.1,15.1,0,0,1-2.965,4.719l.013-.018c-4.253,1.894-6.9.747-8.425-3.774-.848-2.511.79-4.235,2.185-5.983,1.05-1.316,2.4-1.17,3.9-.939C259.116,57.036,259.717,59.914,261.121,62.089Z"/><path class="cls-3" d="M296.289,87.014l.448.275a14.045,14.045,0,0,1,1.341,2.152c.905,2.247,1.1,4.619-.313,6.655a4.521,4.521,0,0,1-5.241,1.737c-3.318-.948-5.4-4.42-4.467-7.358C289.007,87.489,292.707,85.934,296.289,87.014Z"/><path class="cls-3" d="M406.463,157.711l.231-.229a16.979,16.979,0,0,0,2.129-1.819c1.092-1.281,2.341-2.265,3.855-1,1.562,1.3,1.289,2.984.139,4.541-1.482,2.008-2.894,4.072-4.455,6.016-1.673,2.083-3.087,4.7-6.5,4.017l.015.035-.332-.235-.049-.053-.071.015a2.869,2.869,0,0,1,.071-3.859c1.543-2.148,3.527-4.01,4.435-6.587l-.033.014.233-.332.051-.049-.025-.067Z"/><path class="cls-3" d="M349.488,123.421l-1.1,1.09c-1.78.255-2.64-1.4-4.038-1.941l-.51-.51-.55-.648-.2-.179c-.7-.628-1.406-1.244-2.087-1.888-.469-.444-.889-.977-.6-1.655a1.921,1.921,0,0,1,1.591-1.281c2.5-.3,7.635,4.17,7.67,6.689l.036-.013C349.621,123.2,349.554,123.309,349.488,123.421Z"/><path class="cls-3" d="M335.023,95.915c1.649,0,6.626,3.42,7.051,4.82a2.1,2.1,0,0,1-.828,2.713,1.927,1.927,0,0,1-2.792-.744,5.891,5.891,0,0,0-3.4-2.81,2.277,2.277,0,0,1-1.681-2.476A1.782,1.782,0,0,1,335.023,95.915Z"/><path class="cls-3" d="M352.191,113.878l-.248-.188-1.385-1.385-.706-.791-1.44-1.144-.794-.725c-.537-.929-.093-1.637.554-2.258a1.356,1.356,0,0,1,1.735-.269q2.937,2,5.784,4.124a1.745,1.745,0,0,1,.5,2.5,1.677,1.677,0,0,1-2.388.783C353.277,114.277,352.728,114.091,352.191,113.878Z"/><path class="cls-3" d="M329.775,110.951l-.508-.5-.819-.583.013.018a7.785,7.785,0,0,1-.722-.562c-.806-.785-2.026-1.483-1.06-2.862.928-1.327,2.089-1.134,3.244-.251,1.558,1.192,3.118,2.384,4.666,3.589a1.521,1.521,0,0,1,.493,1.92,1.816,1.816,0,0,1-1.606,1.243c-1.08.077-1.8-.669-2.636-1.151l0,0-.52-.375-.22-.184Z"/><path class="cls-3" d="M154.063,280.483l-.665-.021c-.953-.171-1.9-.361-2.86-.508-2.942-.451-5.815.608-8.8.276a35.382,35.382,0,0,0-10.233-.125c-3.96.739-7.733-.357-11.619-.206-4.294.168-8.666-.248-12.94.326-4.651.625-7.076-1.351-6.651-5.9a21.5,21.5,0,0,0,0-5.471c-.84-5.02-.149-10.032-.067-15.033.043-2.608-.041-5.211-.071-7.81-.051-4.41-.362-8.816-.071-13.23.169-2.573.417-5.154.364-7.725-.077-3.73-.548-7.454-.576-11.182-.044-5.925.336-11.858.164-17.776-.131-4.536.625-9.028-.092-13.621-.745-4.775.426-9.638.632-14.469.067-1.555.788-2.428,2.219-2.5,2.333-.11,4.677-.011,7.016,0,1.6.007,3.188-.538,4.8.029a6.506,6.506,0,0,0,5.537-.53l1.263-.02c2.74,1,5.585.465,8.37.461,5.3-.007,10.643-.479,15.9-.283,6.63.248,13.273.136,19.9.581,5.839.393,11.674-.6,17.558-.293,6.66.346,13.351.057,20.029.093,1.7.009,3.472.586,5.07.241,5.643-1.217,11.365-.381,16.947-.237,5.794.149,11.585-.39,17.414.069,6.691.527,13.482-.216,20.23-.407l.437.068a3.343,3.343,0,0,1,1.22,3.184c-.362,3.592.237,7.186.146,10.808-.086,3.386-.142,6.8-.368,10.173-.359,5.369.163,10.708.107,16.064-.047,4.488.854,9.027.428,13.457a76.316,76.316,0,0,0,.031,9.165q-.024,1.088-.046,2.174a26.983,26.983,0,0,0-.416,5.948c.32,5.275.342,10.573.328,15.862-.021,8.4-.209,16.8-.227,25.2,0,1.712-.641,2.566-2.279,2.6-6.36.12-12.721.18-19.081.291-8.553.15-17.1-.44-25.661-.072-5.178.222-10.422-.727-15.572-.322-8.441.664-16.857-.2-25.3.16a132.2,132.2,0,0,1-16,.083C158.435,279.889,156.186,279.671,154.063,280.483Zm-21.112-59.769c-.272,28.807,19.942,50.264,48.093,51.461,25.4,1.081,52.5-19.721,50.524-53.1a46.545,46.545,0,0,0-16.612-33.508c-9.542-8.128-20.818-12.881-33.252-12.338C155.355,174.38,135.884,191.038,132.951,220.714Zm2.585-36.833c3.095.335,3.871-1.173,3.462-3.941a9.454,9.454,0,0,1,.128-2.941,3.012,3.012,0,0,0-3.271-3.805c-4.784.057-9.578.271-14.351.053-2.719-.124-5.371.387-8.106.193-3.914-.276-4.876.981-4.679,4.81.288,5.59.334,5.633,5.877,5.632Q125.066,183.879,135.536,183.881Z"/><path class="cls-3" d="M123.723,144.2a4.71,4.71,0,0,1-4.84-4.555c.06-2.523,2.033-4.65,4.269-4.6a5.072,5.072,0,0,1,4.909,5.534C127.791,142.782,126.588,144.429,123.723,144.2Z"/><path class="cls-3" d="M145.968,139.659a4.827,4.827,0,0,1-4.475,4.8c-2.251-.016-4.408-2-4.41-4.046,0-3.169,1.9-5.557,4.431-5.566A4.75,4.75,0,0,1,145.968,139.659Z"/><path class="cls-3" d="M158.781,143.985c-2.284.165-3.737-1.639-3.883-5.069-.1-2.418,1.426-3.586,3.618-3.845,2.543-.3,5.351,1.852,5.53,4.061C164.278,141.988,162.393,143.725,158.781,143.985Z"/><path class="cls-3" d="M243.927,140c0,2.148-2.735,4.467-5.264,4.469-1.839,0-4.063-2.5-3.731-4.842.271-1.908,1.013-4.13,3.533-4.26C241.956,135.185,243.934,136.986,243.927,140Z"/><path class="cls-3" d="M110.07,139.6a4.191,4.191,0,0,1-4.5,4.4c-2.185-.09-4.113-.866-4.286-3.356-.2-2.847,1.728-5.555,3.589-5.525C108.219,135.174,110.076,136.772,110.07,139.6Z"/><path class="cls-3" d="M405.041,150.182a4.66,4.66,0,0,1-1.253,2.782c-2.347,2.185-4.077,4.875-6.073,7.347a5.353,5.353,0,0,1-3.649,2.078c-1.935.138-2.407-1.631-1.732-2.893,1.543-2.884,2.773-6.014,5.429-8.216a25.233,25.233,0,0,0,2.612-3.04c.749-.862,1.694-1.5,2.828-.984A3.48,3.48,0,0,1,405.041,150.182Z"/><path class="cls-3" d="M417.126,172.763c-.7.749-1.416,1.484-2.1,2.25-1.385,1.558-2.94,1.784-4.615.539-1.713-1.273-1.057-2.647.011-3.91,2.719-3.217,4.853-6.934,8.144-9.658.906-.749,1.96-1.143,2.978-.058,1,1.063,1.585,2.181.608,3.582q-2.524,3.621-5.031,7.255Z"/><path class="cls-3" d="M283.776,64.586c-2.68-.036-5.51-2.731-5.534-5.273-.022-2.179,3.212-5.844,5.159-5.848,3.243-.006,6.707,2.857,6.6,5.453C289.88,61.7,286.665,64.624,283.776,64.586Z"/><path class="cls-3" d="M272.812,46.315a5.764,5.764,0,0,1-5.405,6.033c-2.439.037-5.545-2.815-5.6-5.143a6.3,6.3,0,0,1,6.4-6.63C270.579,40.584,272.815,43.367,272.812,46.315Z"/><path class="cls-3" d="M311.4,76.983a5.356,5.356,0,0,1-5.528,5.145,5.742,5.742,0,0,1-5.506-5.636,5.881,5.881,0,0,1,5.661-5.951C308.814,70.53,311.386,73.614,311.4,76.983Z"/><path class="cls-3" d="M355.09,129.564c.3-1.923,1.006-3.1,2.86-1.983a18.359,18.359,0,0,1,5.176,5.2,1.547,1.547,0,0,1-.246,2.088,1.429,1.429,0,0,1-1.966.088c-1.662-1.2-3.342-2.384-4.912-3.7A4.954,4.954,0,0,1,355.09,129.564Z"/><path class="cls-3" d="M394.619,141.181a2.98,2.98,0,0,1-3.378,3.425c-2.212-.055-3.129-1.881-3.358-3.735a2.219,2.219,0,0,1,2.6-2.526C392.382,138.446,394.528,138.392,394.619,141.181Z"/><path class="cls-3" d="M387.248,150.465c-.162,2.846-2,3.737-4.126,3.621-2.431-.134-2.063-2.538-2.243-4.057-.216-1.831,1.32-2.81,2.956-2.68A3.518,3.518,0,0,1,387.248,150.465Z"/><path class="cls-3" d="M370.24,125.845c-1.59.356-2.838-.511-3.882-1.411a47.34,47.34,0,0,0-3.919-3.622c-.9-.619-.564-1.511-.064-2.267.434-.656,1.227-1.187,1.812-.648,1.9,1.752,4.662,2.295,6.156,4.632.8,1.245,1.012,2.244-.109,3.319Z"/><path class="cls-3" d="M377.324,143.047c-.305,1.738-.776,3.4-2.868,3.273-1.983-.125-3.586-1.2-3.609-3.4a2.682,2.682,0,0,1,2.875-3.009C375.725,139.961,377.105,140.9,377.324,143.047Z"/><path class="cls-3" d="M378.549,133.393a2.88,2.88,0,0,1,3.139-2.882,3.379,3.379,0,0,1,3.241,3.625,2.9,2.9,0,0,1-3.081,3.039C379.566,137.141,378.626,135.765,378.549,133.393Z"/><path class="cls-2" d="M132.951,220.714c2.933-29.676,22.4-46.334,48.753-47.484,12.434-.543,23.71,4.21,33.252,12.338a46.545,46.545,0,0,1,16.612,33.508c1.973,33.378-25.128,54.18-50.524,53.1C152.893,270.978,132.679,249.521,132.951,220.714Zm83.448-17.4.01.01a6.284,6.284,0,0,0-.458-1.229,39.051,39.051,0,0,0-14.673-14.146,37.455,37.455,0,0,0-23.587-4.412c-10.021,1.4-18.488,5.19-25.209,13.107a41.21,41.21,0,0,0-9.624,19.6c-1.846,10.418,1.351,19.968,6.716,28.861a33.681,33.681,0,0,0,14.709,12.96,40.012,40.012,0,0,0,9.951,3.64c2.893.546,5.861.037,8.6.548,4.726.88,8.707-1.264,12.99-2.09,3.34-.643,5.913-3.025,8.8-4.71a33.191,33.191,0,0,0,11.415-11.367,38.486,38.486,0,0,0,5.59-26.7A36.045,36.045,0,0,0,216.4,203.309Z"/><path class="cls-4" d="M135.855,173.194c-4.784.057-9.578.271-14.351.053-2.719-.124-5.371.387-8.106.193-3.914-.276-4.876.981-4.679,4.81.288,5.59.334,5.633,5.877,5.632q10.47,0,20.94,0c3.095.335,3.871-1.173,3.462-3.941a9.454,9.454,0,0,1,.128-2.941A3.012,3.012,0,0,0,135.855,173.194Z"/><path class="cls-5" d="M510.715,214.434c-2.717-2.405-5.281-5.064-8.287-7.042-6.841-4.5-12.872-10.007-19.385-14.9-2.76-2.071-5.11-4.64-7.983-6.463-3.228-2.048-5.941-4.694-8.833-7.089-3.161-2.619-6.43-5.259-9.738-7.5-4.006-2.714-7.058-6.447-11.254-8.947-4.363-2.6-7.991-6.474-12.151-9.394-7.789-5.467-14.757-11.935-22.482-17.461-5.719-4.091-11.06-8.706-16.689-12.927-2.611-1.958-5.253-3.949-7.656-6.076-4.765-4.218-10.155-7.6-14.871-11.872-3.4-3.075-7.261-5.623-10.85-8.491-4.614-3.687-9.015-7.661-13.794-11.115-2.718-1.964-5.3-4.122-8.143-5.972-6.119-3.978-11.183-9.42-17.174-13.664-2.241-1.588-4-3.987-6.4-5.2-5.644-2.858-9.713-7.693-14.613-11.428-4.722-3.6-9.825-6.828-14.172-11.1-4.71-4.627-10.332-8.4-15.868-12.08-2.971-1.974-4.664-5.353-8.1-6.678a8.561,8.561,0,0,1-2.335-1.236c-6.874-5.614-13.58-11.427-20.7-16.754-2.718-2.035-4.057-.825-5.583,1.154-2.289,2.971-4.569,5.949-6.867,8.912-2.372,3.059-5.083,5.91-7.064,9.2-2.953,4.9-6.843,9.126-10.323,13.535-4.208,5.332-8.608,10.622-12.79,15.992-4.364,5.6-9.226,10.822-13.194,16.735-.4.6-1,1.169-1.8.885-.735-.262-.818-1.049-.8-1.714.043-1.921.449-3.881.189-5.753-.722-5.186.111-10.362-.158-15.542-.106-2.035-.917-2.745-2.824-2.9a82.1,82.1,0,0,0-9.67.006c-1.607.06-3.2-.383-4.507.931l-.11.389h0a1.452,1.452,0,0,0-.532,1.688c.974,3.935-.154,7.908.286,11.855.391,3.515-.772,6.964-.306,10.563a63.166,63.166,0,0,1,.088,11.133c-.193,3.931-.458,7.836.474,11.709l.06.671c-.271,4.131-.98,8.29-.711,12.386.392,5.987-.1,11.945.091,17.912.034,1.1-.162,2.234.569,3.207l.011.411a.784.784,0,0,0,.217.074c1.643-.07,3.311-.317,4.944-.313-1.633,0-3.3.243-4.944.313a2.344,2.344,0,0,0,2.494,1.405q6.087-.162,12.177-.271a1.819,1.819,0,0,0,1.666-.924.863.863,0,0,0-.032-.195c.948-2.23.089-4.6.528-6.868l-.08-.334a2.492,2.492,0,0,1-.283-.69,2.484,2.484,0,0,0,.283.689,22.584,22.584,0,0,0,.007-8.152.656.656,0,0,0,.091-.147c.6-5.527-.37-11.065.283-16.624.426-3.624-.014-7.349-.061-11.029-.01-.767-.057-1.622.727-2.031s1.5.1,2.053.617c4.651,4.292,9.76,8.007,14.775,11.843a2.939,2.939,0,0,0,3.214.575l.843-.964c2.04-1.518,3.071-3.824,4.473-5.826,3.695-5.275,8.553-9.65,11.777-15.283,1.709-2.174,3.451-4.324,5.113-6.532.808-1.074,1.673-1.137,2.919-.818,2.377.61,3.3,2.893,5.165,4.136,4.344,2.9,8.721,5.822,12.364,9.648a1.481,1.481,0,0,0,.2.01c.121-.046.242-.111.364-.165-.122.054-.243.119-.364.165,3.4,1.581,5.641,4.654,8.654,6.734a2.3,2.3,0,0,1,.086.227c2.161,2.363,4.968,3.876,7.532,5.709l.015.126c3.107,1.525,5.427,4.077,8.085,6.189a.7.7,0,0,0,.132.231l.348.236c.934,1.482,2.665,1.889,3.943,2.92,5.056,4.077,10.168,8.084,15.259,12.118l.275.144c0,.057-.008.114-.011.171,3.47,1.474,5.357,4.966,8.593,6.737.028.049.057.1.086.147l6.9,5.017a3.182,3.182,0,0,1,1.281-.194,3.182,3.182,0,0,0-1.281.194.622.622,0,0,1,.013.2l8.706,6.54.232.317.052.277a20.376,20.376,0,0,0,7.208,5.192l.292.158.562.278c1.75,2.935,5.308,3.852,7.291,6.527l.1.252.122-.03c1.422,1.2,2.237,3.076,4.119,3.746a22.611,22.611,0,0,1,6.279,3.979c3.423,2.7,6.395,5.958,10.148,8.249l1.155.579a1.113,1.113,0,0,0,0,.153l7.808,5.788.31.391,7.262,6.043a.566.566,0,0,1,.2.014h0l8.9,6.968a1.139,1.139,0,0,0,.089.247,36.73,36.73,0,0,1,4.951,3.309,85.85,85.85,0,0,0,9.794,8.34c2.082,1.412,4.419,2.5,6.276,4.248l1,.848c1.121,2.474,4.014,2.654,5.7,4.4l.111.435c2.033,2.5,5.085,3.668,7.477,5.7l-.03.2,8.112,6.546c.044.089.088.178.133.266l6.886,5.37a.768.768,0,0,1,.023.185l9.121,6.672.075.266.367.195.367.287-.029,0q7.3,5.838,14.592,11.676c2.712,2.169,2.878,3.332.894,6.191-3.119,4.5-7.217,8.252-9.886,13.088l-.182.181a35.074,35.074,0,0,0-6.746,8.469l.019-.013-.22.3c-1.207,1.92-3.314,3.175-4.035,5.455.1,2.174,1.884,3.012,3.3,4.13,4.83,3.814,9.984,7.223,14.27,11.712,3.048,3.192,6.134,2.9,8.676-.647,1.272-1.775,2.325-3.792,3.9-5.246,2.979-2.756,4.912-6.3,7.588-9.305,5.364-6.018,10.064-12.632,14.976-19.047,3.374-4.405,7.075-8.545,10.242-13.122,2.408-3.482,5.216-6.685,7.749-10.085,3.232-4.338,7.178-8.108,10.08-12.706A2.248,2.248,0,0,0,510.715,214.434ZM164.351,47.179a15.612,15.612,0,0,0-.139-2.316A15.612,15.612,0,0,1,164.351,47.179Zm15.758,66.559c-.007-.232-.011-.465-.011-.7C180.1,113.273,180.1,113.506,180.109,113.738Zm.071,1.17c.008.086.017.169.026.253C180.2,115.077,180.188,114.994,180.18,114.908Zm.123.961c.043.256.091.5.147.706C180.394,116.366,180.346,116.125,180.3,115.869ZM290,58.918c-.118,2.777-3.333,5.706-6.222,5.668-2.68-.036-5.51-2.731-5.534-5.273-.022-2.179,3.212-5.844,5.159-5.848C286.644,53.459,290.108,56.322,290,58.918Zm8.728,3.531c.821.533,1.362,1.266.725,2.238-.88,1.344-1.879,2.609-2.776,3.942-1.968,2.923-4.551,5.41-6.1,8.627l-.767,1.054-.648.819-.169.24c0,.054,0,.108,0,.16,0-.052,0-.106,0-.16q-.3.409-.6.818h.009a27.857,27.857,0,0,0-6.508,8.121l-.188.247q-.445.552-.892,1.1l-.467.489c-1.077.8-2.2,1.365-3.275.067s-.011-2.175.673-3.149c1.2-1.707,2.342-3.452,3.51-5.18l.486-.506c2.781-1.8,4.125-4.777,6-7.318l.72-.853c2.7-3.411,5.427-6.8,8.1-10.242C297.2,62.142,297.856,61.885,298.726,62.449Zm-6.2,35.384c-3.318-.948-5.4-4.42-4.467-7.358.95-2.986,4.65-4.541,8.232-3.461l.448.275h0a14.045,14.045,0,0,1,1.341,2.152c.905,2.247,1.1,4.619-.313,6.655A4.521,4.521,0,0,1,292.524,97.833Zm13.5-27.292c2.791-.011,5.363,3.073,5.373,6.442a5.356,5.356,0,0,1-5.528,5.145,5.742,5.742,0,0,1-5.506-5.636A5.881,5.881,0,0,1,306.023,70.541ZM272.812,46.315a5.764,5.764,0,0,1-5.405,6.033c-2.439.037-5.545-2.815-5.6-5.143a6.3,6.3,0,0,1,6.4-6.63C270.579,40.584,272.815,43.367,272.812,46.315ZM258.2,67.232l0,0h0c-4.253,1.894-6.9.747-8.425-3.774-.848-2.511.79-4.235,2.185-5.983,1.05-1.316,2.4-1.17,3.9-.939,3.252.5,3.853,3.38,5.257,5.555l.035.44a4.921,4.921,0,0,1-.189,2.349,4.921,4.921,0,0,0,.189-2.349,15.1,15.1,0,0,1-2.965,4.719ZM268.54,79.96l-.309-.225-.763-.589a4.3,4.3,0,0,1-1.956-1.054,4.3,4.3,0,0,0,1.956,1.054c-2.7-2.608-1.7-5.456-.54-8.314,2.176-1.336,4.51-2.463,6.972-1.1a5.868,5.868,0,0,1,2.757,7.236,6.005,6.005,0,0,1-6.274,3.812l-.065-.051-.081.018a2.052,2.052,0,0,1-.527-.008,2.052,2.052,0,0,0,.527.008l-.91-.371Zm148.584,92.8h0c-.7.749-1.416,1.484-2.1,2.25-1.385,1.558-2.94,1.784-4.615.539-1.713-1.273-1.057-2.647.011-3.91,2.719-3.217,4.853-6.934,8.144-9.658.906-.749,1.96-1.143,2.978-.058,1,1.063,1.585,2.181.608,3.582Q419.631,169.129,417.124,172.762Zm-90.445-66.3c.928-1.327,2.089-1.134,3.244-.251,1.558,1.192,3.118,2.384,4.666,3.589a1.521,1.521,0,0,1,.493,1.92,1.816,1.816,0,0,1-1.606,1.243c-1.08.077-1.8-.669-2.636-1.151l0,0-.52-.375-.22-.184-.329-.307-.508-.5-.819-.583v.009a7.518,7.518,0,0,1-.709-.553C326.933,108.542,325.713,107.844,326.679,106.465Zm21.493.922a1.356,1.356,0,0,1,1.735-.269q2.937,2,5.784,4.124a1.745,1.745,0,0,1,.5,2.5,1.677,1.677,0,0,1-2.388.783c-.522-.246-1.071-.432-1.608-.645l-.248-.188a1.368,1.368,0,0,1-1.072-.313,1.368,1.368,0,0,0,1.072.313l-1.385-1.385-.706-.791a2.855,2.855,0,0,1-.3.011,2.855,2.855,0,0,0,.3-.011l-1.44-1.144-.794-.725C347.081,108.716,347.525,108.008,348.172,107.387Zm16.015,10.51c1.9,1.752,4.662,2.295,6.156,4.632.8,1.245,1.011,2.243-.107,3.316-1.588.355-2.834-.512-3.878-1.411a47.34,47.34,0,0,0-3.919-3.622c-.9-.619-.564-1.511-.064-2.267C362.809,117.889,363.6,117.358,364.187,117.9Zm17.5,12.614a3.379,3.379,0,0,1,3.241,3.625,2.9,2.9,0,0,1-3.081,3.039c-2.282-.034-3.222-1.41-3.3-3.782A2.88,2.88,0,0,1,381.688,130.511Zm2.147,16.838a3.518,3.518,0,0,1,3.413,3.116c-.162,2.846-2,3.737-4.126,3.621-2.431-.134-2.063-2.538-2.243-4.057C380.663,148.2,382.2,147.219,383.835,147.349ZM357.95,127.581a18.359,18.359,0,0,1,5.176,5.2,1.547,1.547,0,0,1-.246,2.088,1.429,1.429,0,0,1-1.966.088c-1.662-1.2-3.342-2.384-4.912-3.7a4.954,4.954,0,0,1-.912-1.692C355.386,127.641,356.1,126.459,357.95,127.581Zm19.374,15.466c-.305,1.738-.776,3.4-2.868,3.273-1.983-.125-3.586-1.2-3.609-3.4a2.682,2.682,0,0,1,2.875-3.009C375.725,139.961,377.105,140.9,377.324,143.047Zm-28.66-31.886a.9.9,0,0,0,.373.27A.9.9,0,0,1,348.664,111.161Zm-8,9.125a5.652,5.652,0,0,0,1.147.56A5.652,5.652,0,0,1,340.664,120.286Zm2.623,1.126-.2-.179c-.215-.056-.431-.114-.644-.178.213.064.429.122.644.178-.7-.628-1.406-1.244-2.087-1.888-.469-.444-.889-.977-.6-1.655a1.921,1.921,0,0,1,1.591-1.281c2.5-.3,7.635,4.17,7.67,6.689l.036-.013c-.067.112-.134.224-.2.336l-1.1,1.09a1.719,1.719,0,0,1-1.018.486,1.719,1.719,0,0,0,1.018-.486c-1.78.255-2.64-1.4-4.038-1.941l-.51-.51Zm47.193,16.933c1.9.1,4.048.047,4.139,2.836a2.98,2.98,0,0,1-3.378,3.425c-2.212-.055-3.129-1.881-3.358-3.735A2.219,2.219,0,0,1,390.48,138.345Zm9.895,9.9c.749-.862,1.694-1.5,2.828-.984a3.48,3.48,0,0,1,1.838,2.926,4.664,4.664,0,0,1-1.252,2.782c-2.348,2.185-4.078,4.875-6.074,7.347a5.353,5.353,0,0,1-3.649,2.078c-1.935.138-2.407-1.631-1.732-2.893,1.543-2.884,2.773-6.014,5.429-8.216A25.233,25.233,0,0,0,400.375,148.24Zm.109,20.422a2.6,2.6,0,0,0,.915.329A2.6,2.6,0,0,1,400.484,168.662Zm6.21-11.18a16.979,16.979,0,0,0,2.129-1.819c1.092-1.281,2.341-2.265,3.855-1,1.562,1.3,1.289,2.984.139,4.541-1.482,2.008-2.894,4.072-4.455,6.016-1.673,2.083-3.087,4.7-6.5,4.017l.016.035-.333-.235-.049-.053-.07.015h0a2.869,2.869,0,0,1,.071-3.859c1.543-2.148,3.527-4.01,4.435-6.587l-.033.014.233-.332.051-.049-.025-.067.306-.407ZM333.369,97.418a1.782,1.782,0,0,1,1.654-1.5c1.649,0,6.626,3.42,7.051,4.82a2.1,2.1,0,0,1-.828,2.713,1.927,1.927,0,0,1-2.792-.744,5.891,5.891,0,0,0-3.4-2.81A2.277,2.277,0,0,1,333.369,97.418Zm-11.724,38.971h0c.4.165.8.334,1.186.511C322.441,136.723,322.045,136.554,321.645,136.389Zm4.411,2.412a13.341,13.341,0,0,0-2.084-1.342,13.341,13.341,0,0,1,2.084,1.342,8.958,8.958,0,0,1,1.7,1.769A8.958,8.958,0,0,0,326.056,138.8Zm55.4,31.819a1.37,1.37,0,0,0,.291.019A1.37,1.37,0,0,1,381.454,170.62Zm23.672,16.721-.066.054a.982.982,0,0,1-.331.463.982.982,0,0,0,.331-.463l-1.349.02-.778-.368c-.819-.61-1.688-1.163-2.449-1.839-5.574-4.956-11.61-9.324-17.528-13.842l-.24-.191-.331-.245-.481-.3-.157.006.157-.006-.839-.566v0c-1.829-1.665-3.6-3.409-5.931-4.393l-.235-.176a4.7,4.7,0,0,1-.774-.212,6.5,6.5,0,0,1-1.944-1.192c-.389-.327-.76-.681-1.132-1.031.372.35.743.7,1.132,1.031a6.5,6.5,0,0,0,1.944,1.192,4.7,4.7,0,0,0,.774.212c-3.6-3.042-6.762-6.534-10.691-9.274-5.681-3.961-10.933-8.534-16.418-12.781-4.521-3.5-9.373-6.567-13.552-10.518-4.228-4-9.075-7.186-13.9-10.4l-.788-.743a2.3,2.3,0,0,1-.233.006,2.3,2.3,0,0,0,.233-.006l-1.1-.893-.8-.723c-2.179-1.65-1.877-3.381,0-4.946,1.722-1.432,3.347-.827,4.694.69,1.306,1.471,3.036,2.332,4.594,3.45,2.993,2.148,5.881,4.445,8.782,6.719,2.787,2.186,5.536,4.421,8.3,6.635l1.051.708c3.434,2.365,6.459,5.249,9.726,7.825,3.095,2.441,6.154,4.9,9.451,7.064,0,0,0-.006,0-.01A99.6,99.6,0,0,0,381,161.052q.363.364.727.727h0a6.538,6.538,0,0,0,4.676,3.791l-.016-.027.316.242.713.578a7.665,7.665,0,0,1,1.929.795,7.665,7.665,0,0,0-1.929-.795c.477.526.957,1.049,1.43,1.579,2.935,3.284,7.169,4.873,10.3,7.912a20.437,20.437,0,0,0,6.683,4.63l.526.438a6.115,6.115,0,0,1,1.521.525,6.115,6.115,0,0,0-1.521-.525c2.073,2.411,1.893,3.422-1.148,6.429Zm61.724,37.253h0c-1.46,1.337-2.549,3.077-4.37,4.022l.031-.024,0,0h0a8.282,8.282,0,0,1-7.9-1.72,92.067,92.067,0,0,0-13.371-10.124l-.78-.77c-.1,0-.209.007-.306,0,.1.007.2,0,.306,0l-.826-.574v.008l-1.339-.832,0,.013-.83-.568L436.425,213a8.014,8.014,0,0,0-1.278-.841c-.605-.329-1.243-.618-1.858-.935-.307-.159-.608-.325-.9-.507.288.182.589.348.9.507.615.317,1.253.606,1.858.935a8.014,8.014,0,0,1,1.278.841,16.189,16.189,0,0,0-6.25-5.169l-.233-.227a8.661,8.661,0,0,1-2.162-7.094c.386-2.675,2.487-4.26,3.258-6.6l-.032.012.2-.333,1.124-1.575c.082-.192.151-.4.218-.613a6.482,6.482,0,0,1-.218.613,12.656,12.656,0,0,0,4.345-4.8c2.913-5.1,8.385-7.658,13.661-3.631,3.4,2.591,6.3,5.838,10.29,7.623v0c4.2,3.556,8.411,7.094,12.588,10.675,2.294,1.966,4.672,3.919,4.154,7.47-.362,2.478-2.038,4.221-3.44,6.1-2.243,3-4.571,5.933-6.864,8.894Z"/><path class="cls-5" d="M331.224,210.505c-.369-2.866.744-5.877-.127-8.819l-.267-1.064a3.391,3.391,0,0,0-2.285-.864c-4.83-.592-9.668-.107-14.5-.2-2.262-.041-4.652-.495-6.676,1.085-.085.011-.171.02-.257.025a13.238,13.238,0,0,0-.333,1.428c-.811,6.519.393,13.073-.289,19.585-.429,4.1,1.138,8.127.038,12.266-.99,3.731.032,5.145,3.846,5.22a131.625,131.625,0,0,0,17.476-.363c2.289-.259,3.867-.548,3.81-3.191-.033-1.52-.239-3.039-.211-4.556C331.575,224.209,332.108,217.377,331.224,210.505Z"/><path class="cls-5" d="M276.826,243.538c-.58-2.681.753-5.308.1-7.963-.815-3.341-.555-6.713-.36-10.086a44.119,44.119,0,0,0,.3-5.75c-.362-4.919.536-9.841-.192-14.765-.206-1.4.644-2.882.173-4.371l.052-.535c.37-6.442-.121-12.884-.161-19.322-.051-8.111.575-16.271-.687-24.354a15.315,15.315,0,0,0-.55-1.912c-.082-.016-.163-.036-.243-.059h0a3.626,3.626,0,0,0-2.894-.753c-2.634.123-5.273.6-7.891.494a201.259,201.259,0,0,0-21.2-.233c-4.473.283-8.959-.476-13.383-.117-7.534.612-15.031-.683-22.54-.024-5.091.447-10.152-.416-15.264-.208-7.52.3-15.058.387-22.6.159-7.2-.217-14.421.271-21.633.449-3.168-.787-6.366-.361-9.569-.322-6.415.078-12.837.334-19.243-.473-2.193-.277-4.255,1.161-6.587.765-7.7-1.306-15.445-.294-23.171-.154a1.259,1.259,0,0,0-.02.172c-1.179.174-1.527,1.04-1.522,2.032.04,7.591.169,15.181.163,22.771,0,6.227-.5,12.474-.136,18.675.288,4.959.172,9.913.395,14.865.134,2.984-.758,6.068-.308,8.97a57.53,57.53,0,0,1,.154,12.086c-.3,5.465.065,10.9.046,16.342-.016,4.58-.467,9.126-.1,13.78.64,8.164,0,16.425-.014,24.646,0,2.663,1.4,3.651,3.981,3.295a19.016,19.016,0,0,1,3.076.085c4.345.122,8.86,1.034,12.992.151,4.989-1.066,9.8.091,14.691-.164a121.891,121.891,0,0,1,14.231-.037c7.624.5,15.315-.018,22.977-.12a25.332,25.332,0,0,1,4.435-.124c6.281,1.055,12.687.753,18.889.412,7.571-.417,15.107.429,22.645-.252,5.723-.517,11.441.606,17.209.063,3.978-.375,8.042.308,12.058.189,6.21-.184,12.435-.318,18.632-.365,4.893-.038,9.849-.006,14.768.332,1.462.1,2.986-.351,4.407-.111,1.445.244,2.454.082,3.176-1.217l.2-.54a30.165,30.165,0,0,0,.768-9.622,37.868,37.868,0,0,1-.261-8.285c.627-5.153-.263-10.253-.168-15.388C276.72,252.287,277.769,247.9,276.826,243.538ZM147.866,154.2a10.756,10.756,0,0,1-4.271.846,10.756,10.756,0,0,0,4.271-.846ZM153.4,280.462c-3.649.206-7.29.456-10.947.457,3.657,0,7.3-.251,10.947-.457-.953-.171-1.9-.361-2.86-.508-2.942-.451-5.815.608-8.8.276a35.382,35.382,0,0,0-10.233-.125c-3.96.739-7.733-.357-11.619-.206-4.294.168-8.666-.248-12.94.326-4.651.625-7.076-1.351-6.651-5.9a21.5,21.5,0,0,0,0-5.471c-.84-5.02-.149-10.032-.067-15.033.043-2.608-.041-5.211-.071-7.81-.051-4.41-.362-8.816-.071-13.23.169-2.573.417-5.154.364-7.725-.077-3.73-.548-7.454-.576-11.182-.044-5.925.336-11.858.164-17.776-.131-4.536.625-9.028-.092-13.621-.745-4.775.426-9.638.632-14.469.067-1.555.788-2.428,2.219-2.5,2.333-.11,4.677-.011,7.016,0,1.6.007,3.188-.538,4.8.029a6.506,6.506,0,0,0,5.537-.53l1.263-.02c2.74,1,5.585.465,8.37.461,5.3-.007,10.643-.479,15.9-.283,6.63.248,13.273.136,19.9.582,5.839.392,11.674-.6,17.558-.294,6.66.346,13.351.057,20.029.093,1.7.009,3.472.586,5.07.241,5.643-1.217,11.365-.381,16.946-.237,5.795.149,11.586-.39,17.415.069,6.691.527,13.482-.216,20.23-.407l.437.068h0a3.343,3.343,0,0,1,1.22,3.184c-.362,3.592.237,7.186.146,10.808-.086,3.386-.142,6.8-.368,10.173-.359,5.369.163,10.708.107,16.064-.047,4.488.854,9.027.428,13.457a76.316,76.316,0,0,0,.031,9.165q-.024,1.088-.046,2.174c.039.4.086.8.134,1.194-.048-.4-.095-.8-.134-1.194a26.983,26.983,0,0,0-.416,5.948c.321,5.275.342,10.573.329,15.862-.022,8.4-.21,16.8-.228,25.2,0,1.712-.641,2.565-2.279,2.6-6.36.12-12.721.18-19.081.291-8.553.15-17.1-.44-25.661-.072-5.178.222-10.422-.727-15.572-.322-8.441.664-16.857-.2-25.3.16a132.2,132.2,0,0,1-16,.083c-2.138-.167-4.387-.385-6.51.427Z"/><path class="cls-5" d="M125.835,113.52c-.106,1.6.409,2.607,1.887,2.875a32.56,32.56,0,0,0,5.465.537c6.636.061,13.274.024,19.91.024,2.239-.254,4.848.032,4.424-3.414-.969-7.87-.389-15.743-.18-23.607.085-3.2-.636-4.445-3.9-4.406-1.7.02-3.443.577-5.076.317-6.6-1.055-13.161-.445-19.737.062-1.131.088-2.294.338-2.341,1.719q-.314,9.261-.478,18.527C125.765,108.609,126,111.076,125.835,113.52Z"/><path class="cls-5" d="M127.862,59.224c1.954,2.606,4.554,1.989,7.088,1.32,2.326-.613,2.763-2.726,3.27-4.662.729-2.783-1.34-5.926-4.416-6.85a5.323,5.323,0,0,0-6.427,3.414.2.2,0,0,0-.052.19q-.164.431-.329.862l.025-.035C126.009,55.573,124.725,57.723,127.862,59.224Zm0-.008c-.126-.471-.247-.942-.356-1.416.109.474.23.945.356,1.416Zm-.392-1.6c-.093-.413-.18-.828-.249-1.245C127.291,56.791,127.378,57.205,127.471,57.619Zm-.343-2.021c-.027-.223-.065-.444-.081-.668C127.064,55.154,127.1,55.375,127.128,55.6Z"/><path class="cls-5" d="M150.773,61.368c3.549.019,6.276-2.3,6.274-5.347,0-3.906-2.529-7.1-5.612-7.1-3.694.005-6.834,2.929-6.814,6.347C144.638,58.053,147.967,61.352,150.773,61.368Z"/><path class="cls-5" d="M131.481,64.59c-2.584-.021-5.226,3.218-5.245,6.432-.019,3.173,3.054,6.022,6.488,6.016,3.453-.007,6.006-2.926,5.9-6.741C138.522,66.893,135.686,64.626,131.481,64.59Z"/><path class="cls-5" d="M149.64,64.848c-2.508.065-4.762,2.95-4.748,6.076.012,2.908,2.864,5.9,5.555,5.831,3.852-.1,6.8-2.493,6.711-5.443Q156.954,64.661,149.64,64.848Z"/><path class="cls-5" d="M174.234,261.7c2.893.546,5.861.037,8.6.548,4.726.88,8.707-1.264,12.99-2.089,3.34-.644,5.913-3.026,8.8-4.711a33.191,33.191,0,0,0,11.415-11.367,38.486,38.486,0,0,0,5.59-26.7,36.06,36.06,0,0,0-5.225-14.068l0,0a6.284,6.284,0,0,0-.458-1.229,39.051,39.051,0,0,0-14.673-14.146,37.455,37.455,0,0,0-23.587-4.412c-10.021,1.4-18.488,5.19-25.209,13.107a41.21,41.21,0,0,0-9.624,19.6c-1.846,10.418,1.351,19.968,6.716,28.861a33.681,33.681,0,0,0,14.709,12.96A40.012,40.012,0,0,0,174.234,261.7Zm1.969-28.981a5.8,5.8,0,0,1-1.834-.6,5.8,5.8,0,0,0,1.834.6h0l.536.27ZM174.946,214c8.057-4.76,14.785-2.932,18.228,5.945,2.29,5.905-1.744,12.884-9.517,13.9-2.455.322-4.547-.519-6.778-1.026l-.614-.175C170.294,228.529,169.315,217.329,174.946,214Z"/><path class="cls-3" d="M176.879,232.821l-.614-.175c-5.971-4.117-6.95-15.317-1.319-18.644,8.057-4.76,14.785-2.932,18.228,5.945,2.29,5.905-1.744,12.884-9.517,13.9C181.2,234.169,179.11,233.328,176.879,232.821Z"/></g></g></svg>