<?xml version="1.0" encoding="utf-8"?>
<!-- Generator: Adobe Illustrator 23.0.4, SVG Export Plug-In . SVG Version: 6.00 Build 0)  -->
<svg version="1.1" id="Layer_1" xmlns="http://www.w3.org/2000/svg" xmlns:xlink="http://www.w3.org/1999/xlink" x="0px" y="0px"
	 viewBox="0 0 114 86" style="enable-background:new 0 0 114 86;" xml:space="preserve">
<style type="text/css">
	.st0{fill:#CACACA;}
	.st1{fill:#F6871F;}
	.st2{fill:#117BB6;}
	.st3{fill:#F0EFEF;}
	.st4{fill:#D3D3D3;}
	.st5{fill:#EC801F;}
	.st6{fill:#1C2930;}
	.st7{fill:#FFFFFF;}
</style>
<title>Asset 4</title>
<g>
	<g id="news">
		<rect y="11.9" class="st0" width="114" height="74"/>
		<circle class="st1" cx="56.8" cy="36.6" r="7.6"/>
		<path class="st2" d="M99.5,30.1c0-0.1-0.1-0.1-0.1-0.1l-1.9-0.4l7.7-9.3c0.1-0.1,0.1-0.2,0-0.2c-0.1-0.1-0.2-0.1-0.2,0l-12.3,9.1
			c-0.1,0.1-0.1,0.2,0,0.2c0,0,0.1,0.1,0.1,0.1l1.9,0.4l-7.7,9.3c-0.1,0.1,0,0.2,0,0.2c0.1,0,0.1,0,0.2,0l12.3-9.1
			C99.5,30.3,99.5,30.2,99.5,30.1z"/>
		<path class="st2" d="M108.3,38.9c0-0.1-0.1-0.1-0.2-0.1L99,40.7c-0.1,0-0.2,0.1-0.1,0.2c0,0,0,0.1,0.1,0.1l0.9,0.7l-6.5,3.1
			c-0.1,0-0.1,0.1-0.1,0.2c0,0.1,0.1,0.1,0.1,0.1c0,0,0,0,0,0l9.1-1.9c0.1,0,0.1-0.1,0.1-0.2c0,0,0-0.1-0.1-0.1l-0.9-0.7l6.5-3.1
			C108.3,39,108.3,38.9,108.3,38.9z"/>
		<path class="st2" d="M86.3,18.6c-0.1,0-0.2,0-0.2,0.1l-4.6,8.1c0,0.1,0,0.1,0,0.2c0,0.1,0.1,0.1,0.2,0.1l1.1-0.2l-2,6.9
			c0,0.1,0,0.2,0.1,0.2c0,0,0,0,0.1,0c0.1,0,0.1,0,0.1-0.1l4.6-8.1c0-0.1,0-0.2-0.1-0.2c0,0-0.1,0-0.1,0l-1.1,0.2l2-6.9
			C86.4,18.8,86.4,18.7,86.3,18.6z"/>
		<path class="st2" d="M14.1,30.1c0-0.1,0.1-0.1,0.1-0.1l1.9-0.4l-7.7-9.3c-0.1-0.1,0-0.2,0-0.2c0.1,0,0.1,0,0.2,0L21,29.2
			c0.1,0,0.1,0.1,0.1,0.2c0,0.1-0.1,0.1-0.1,0.1L19,29.9l7.7,9.3c0.1,0.1,0.1,0.2,0,0.2c0,0-0.1,0.1-0.1,0.1c0,0-0.1,0-0.1,0
			l-12.3-9.1C14.1,30.3,14.1,30.2,14.1,30.1z"/>
		<path class="st2" d="M5.4,38.9c0-0.1,0.1-0.1,0.2-0.1l9.1,1.9c0.1,0,0.2,0.1,0.1,0.2c0,0,0,0.1-0.1,0.1l-0.9,0.7l6.5,3.1
			c0.1,0,0.1,0.1,0.1,0.2c0,0.1-0.1,0.1-0.1,0.1c0,0,0,0,0,0l-9.1-1.9C11,43.2,11,43.1,11,43c0,0,0-0.1,0.1-0.1l0.9-0.7l-6.5-3.2
			C5.4,39,5.3,38.9,5.4,38.9z"/>
		<path class="st2" d="M27.3,18.6c0.1,0,0.2,0,0.2,0.1l4.6,8.1c0,0.1,0,0.1,0,0.2c0,0.1-0.1,0.1-0.2,0.1l-1.1-0.2l2,6.9
			c0,0.1,0,0.2-0.1,0.2c-0.1,0-0.1,0-0.2-0.1L28,25.8c0-0.1,0-0.2,0.1-0.2c0,0,0.1,0,0.1,0l1.1,0.2l-2-6.9
			C27.2,18.8,27.3,18.7,27.3,18.6z"/>
		<rect x="22.4" y="49.2" class="st3" width="69.2" height="36.8"/>
		<rect x="27.8" y="53.8" class="st4" width="58.4" height="7.6"/>
		<rect x="27.8" y="64.3" class="st4" width="58.4" height="1.7"/>
		<rect x="27.8" y="68.7" class="st4" width="58.4" height="1.7"/>
		<rect x="27.8" y="73.1" class="st4" width="58.4" height="1.7"/>
		<rect x="27.8" y="77.5" class="st4" width="58.4" height="1.7"/>
		<rect x="27.8" y="81.9" class="st4" width="58.4" height="1.7"/>
		<rect x="91.6" y="60.1" class="st4" width="22.4" height="25.8"/>
		<rect y="60.1" class="st4" width="22.4" height="25.8"/>
		<rect x="94.7" y="63.4" class="st3" width="19.3" height="5.5"/>
		<rect x="94.7" y="70.7" class="st3" width="19.3" height="1.5"/>
		<rect x="94.7" y="73.7" class="st3" width="19.3" height="1.5"/>
		<rect x="94.7" y="76.7" class="st3" width="19.3" height="1.5"/>
		<rect x="94.7" y="79.7" class="st3" width="19.3" height="1.5"/>
		<rect x="94.7" y="82.7" class="st3" width="19.3" height="1.5"/>
		<rect y="63.4" class="st3" width="19.3" height="5.5"/>
		<rect y="70.7" class="st3" width="9.6" height="1.5"/>
		<rect y="73.7" class="st3" width="9.6" height="1.5"/>
		<rect y="76.7" class="st3" width="9.6" height="1.5"/>
		<rect y="79.7" class="st3" width="19.3" height="1.5"/>
		<rect y="82.7" class="st3" width="19.3" height="1.5"/>
		<rect x="11.6" y="70.7" class="st3" width="7.5" height="7.5"/>
		<path class="st5" d="M50.5,0h13c5.1,0,9.1,4.1,9.1,9.1v46c0,5.1-4.1,9.1-9.1,9.1h-13c-5.1,0-9.1-4.1-9.1-9.1v-46
			C41.4,4.1,45.5,0,50.5,0z"/>
		<path class="st6" d="M76.2,39.4v15.5c0,7-5.7,12.7-12.7,12.7H50.6c-7,0-12.7-5.7-12.7-12.7V39.4h-5v15.5c0,9.8,8,17.7,17.7,17.7
			h0.9v3.8h3.8V86h5v-9.5H64v-3.8c9.5-0.3,17.2-8.1,17.2-17.7V39.4H76.2z"/>
		<path class="st7" d="M57.1,21.5c-1.1,0-2.1,0.9-2.1,2.1s0.9,2.1,2.1,2.1s2.1-0.9,2.1-2.1S58.2,21.5,57.1,21.5L57.1,21.5z"/>
		<path class="st7" d="M57.1,12.8c-1.1,0-2.1,0.9-2.1,2.1s0.9,2.1,2.1,2.1s2.1-0.9,2.1-2.1S58.2,12.8,57.1,12.8L57.1,12.8z"/>
		<path class="st7" d="M57.1,4.2c-1.1,0-2.1,0.9-2.1,2.1s0.9,2.1,2.1,2.1s2.1-0.9,2.1-2.1S58.2,4.2,57.1,4.2L57.1,4.2z"/>
		<circle class="st7" cx="66.4" cy="23.5" r="2.1"/>
		<path class="st7" d="M66.4,12.8c-1.1,0-2.1,0.9-2.1,2.1c0,1.1,0.9,2.1,2.1,2.1c1.1,0,2.1-0.9,2.1-2.1S67.6,12.8,66.4,12.8
			L66.4,12.8z"/>
		<circle class="st7" cx="66.4" cy="6.3" r="2.1"/>
		<path class="st7" d="M61.9,8.7c-1.1,0-2.1,0.9-2.1,2.1s0.9,2.1,2.1,2.1s2.1-0.9,2.1-2.1S63.1,8.7,61.9,8.7L61.9,8.7z"/>
		<path class="st7" d="M61.9,17.2c-1.1,0-2.1,0.9-2.1,2.1s0.9,2.1,2.1,2.1s2.1-0.9,2.1-2.1S63.1,17.2,61.9,17.2L61.9,17.2z"/>
		<path class="st7" d="M52.3,8.7c-1.1,0-2.1,0.9-2.1,2.1s0.9,2.1,2.1,2.1s2.1-0.9,2.1-2.1S53.4,8.7,52.3,8.7L52.3,8.7z"/>
		<circle class="st7" cx="52.3" cy="19.2" r="2.1"/>
		<circle class="st7" cx="47.7" cy="23.5" r="2.1"/>
		<path class="st7" d="M47.7,12.8c-1.1,0-2.1,0.9-2.1,2.1s0.9,2.1,2.1,2.1s2.1-0.9,2.1-2.1S48.8,12.8,47.7,12.8L47.7,12.8z"/>
		<circle class="st7" cx="47.7" cy="6.3" r="2.1"/>
		<path class="st7" d="M57.1,55.8c-1.1,0-2.1,0.9-2.1,2.1s0.9,2.1,2.1,2.1c1.1,0,2.1-0.9,2.1-2.1C59.1,56.7,58.2,55.8,57.1,55.8
			L57.1,55.8z"/>
		<path class="st7" d="M57.1,47.2c-1.1,0-2.1,0.9-2.1,2.1s0.9,2.1,2.1,2.1s2.1-0.9,2.1-2.1l0,0C59.1,48.1,58.2,47.2,57.1,47.2z"/>
		<circle class="st7" cx="66.4" cy="57.8" r="2.1"/>
		<path class="st7" d="M66.4,47.2c-1.1,0-2.1,0.9-2.1,2.1c0,1.1,0.9,2.1,2.1,2.1c1.1,0,2.1-0.9,2.1-2.1l0,0
			C68.5,48.1,67.6,47.2,66.4,47.2z"/>
		<path class="st7" d="M61.9,51.5c-1.1,0-2.1,0.9-2.1,2.1s0.9,2.1,2.1,2.1c1.1,0,2.1-0.9,2.1-2.1C64,52.4,63.1,51.5,61.9,51.5
			L61.9,51.5z"/>
		<circle class="st7" cx="52.3" cy="53.6" r="2.1"/>
		<circle class="st7" cx="47.7" cy="57.8" r="2.1"/>
		<path class="st7" d="M47.7,47.2c-1.1,0-2.1,0.9-2.1,2.1s0.9,2.1,2.1,2.1s2.1-0.9,2.1-2.1l0,0C49.7,48.1,48.8,47.2,47.7,47.2z"/>
		<rect x="41.4" y="30" class="st3" width="31.3" height="12.4"/>
		<circle class="st5" cx="57.1" cy="36.2" r="7.7"/>
	</g>
</g>
</svg>
