<?xml version="1.0" encoding="utf-8"?>
<!-- Generator: Adobe Illustrator 23.0.4, SVG Export Plug-In . SVG Version: 6.00 Build 0)  -->
<svg version="1.1" id="Layer_1" xmlns="http://www.w3.org/2000/svg" xmlns:xlink="http://www.w3.org/1999/xlink" x="0px" y="0px"
	 viewBox="0 0 114 86" style="enable-background:new 0 0 114 86;" xml:space="preserve">
<style type="text/css">
	.st0{fill:#CACACA;}
	.st1{fill:#EC801F;}
	.st2{fill:#1C2930;}
	.st3{fill:#FFFFFF;}
	.st4{fill:#231F20;}
	.st5{fill:#F0EFEF;}
	.st6{fill:#157BC0;}
</style>
<title>Asset 9</title>
<g>
	<g id="price_drops">
		<rect y="12" class="st0" width="114" height="74"/>
		<path class="st1" d="M100.3,2l0.5-1.5l-1.6-0.2c-7.1-1-11.2,0.9-13,2.1c-1.7-1.2-5.8-3.2-13.1-2.1l-1.6,0.2L72,2
			c2.7,10.9,3.1,22.2,1.3,33.3l-0.2,1.4l1.4,0.2c2.4,0.3,3.3,4.7,3.5,6.2l0.1,1.2h16.2l0.1-1.3c0.1-1.5,0.9-5.7,3.4-6l1.4-0.2
			l-0.2-1.3C95.9,16.4,100.2,2.2,100.3,2z"/>
		<path class="st2" d="M68.9,17.8c-1.4,0.2-2.4,1.5-2.2,2.9c0,0,0,0,0,0.1c0.3,1.4,1.6,2.3,3.1,2.1c1.4-0.2,2.4-1.5,2.2-2.9
			c0,0,0,0,0-0.1C71.7,18.4,70.3,17.5,68.9,17.8z"/>
		<path class="st2" d="M69.1,14.4c1.4-0.2,2.4-1.5,2.2-2.9c0,0,0,0,0-0.1C71,10,69.7,9.1,68.3,9.4c-1.4,0.2-2.4,1.5-2.2,2.9
			c0,0,0,0,0,0.1C66.4,13.7,67.7,14.6,69.1,14.4z"/>
		<path class="st2" d="M68.3,26.1c-1.4,0.2-2.4,1.5-2.2,2.9c0,0,0,0,0,0.1c0.3,1.4,1.6,2.3,3.1,2.1c1.4-0.2,2.4-1.5,2.2-2.9
			c0,0,0,0,0-0.1C71,26.8,69.7,25.9,68.3,26.1z"/>
		<path class="st2" d="M103.3,22.8c1.4-0.2,2.4-1.5,2.2-2.9c0,0,0,0,0-0.1c-0.3-1.4-1.6-2.3-3.1-2.1c-1.4,0.2-2.4,1.5-2.2,2.9
			c0,0,0,0,0,0.1C100.6,22.1,101.9,23,103.3,22.8z"/>
		<path class="st2" d="M103.1,26.1c-1.4,0.2-2.4,1.5-2.2,2.9c0,0,0,0,0,0.1c0.3,1.4,1.6,2.3,3.1,2.1c1.4-0.2,2.4-1.5,2.2-2.9
			c0,0,0,0,0-0.1C105.9,26.8,104.6,25.9,103.1,26.1z"/>
		<path class="st2" d="M104,14.4c1.4-0.2,2.4-1.5,2.2-2.9c0,0,0,0,0-0.1c-0.3-1.4-1.6-2.3-3.1-2.1c-1.4,0.2-2.4,1.5-2.2,2.9
			c0,0,0,0,0,0.1C101.2,13.7,102.6,14.6,104,14.4z"/>
		<rect x="78.1" y="44.3" class="st3" width="16.1" height="41.7"/>
		<rect x="78.1" y="52.9" class="st4" width="16.1" height="2.1"/>
		<rect x="78.1" y="65.2" class="st4" width="16.1" height="2.1"/>
		<rect x="78.1" y="77.5" class="st4" width="16.1" height="2.1"/>
		<path class="st5" d="M82.5,19.6c0.1,0,0.2,0,0.2,0l2.2,1l1.5-10.9c0-0.1,0.1-0.1,0.2-0.1c0.1,0,0.2,0,0.2,0.1l3,13.7
			c0,0.1,0,0.1-0.1,0.1c-0.1,0-0.2,0-0.2,0l-2.2-1l-1.5,10.9c0,0.1-0.1,0.1-0.2,0.1c-0.1,0-0.1,0-0.2,0c0,0-0.1,0-0.1-0.1l-3-13.7
			C82.4,19.7,82.4,19.6,82.5,19.6z"/>
		<rect x="20.6" y="46" class="st6" width="27.4" height="37.7"/>
		<rect x="24.5" y="49.4" class="st3" width="19.8" height="31"/>
		<polygon class="st4" points="48,46 20.6,46 27.3,37.4 41.3,37.4 		"/>
		<polygon class="st2" points="40.1,64.9 35.9,69.1 35.9,53.9 32.8,53.9 32.8,69.1 28.6,64.9 26.4,67.1 34.3,75 42.2,67.1 		"/>
		<circle class="st3" cx="34.3" cy="41.5" r="1.8"/>
		<path class="st2" d="M71.7,49c-2.7,0-5.4-0.6-7.8-1.8c-5.4-2.5-7.4-7.1-9.2-11.2c-2-4.5-3.5-8-9.1-8h0c-4.2,0-7.2,2.2-9,6.6
			c-0.8,2.2-1.3,4.6-1.4,6.9c0,0.6-0.4,1-1,1l0,0c-0.6,0-1-0.4-1-1c0,0,0,0,0,0C33.4,36.1,36,26,45.7,26h0c6.9,0,8.9,4.7,10.9,9.2
			c1.7,3.9,3.5,8,8.2,10.2c6.6,3.1,11.4,1.3,17-0.9c4-1.5,8.2-3.1,13.5-3.1c0.6,0,1,0.4,1,1s-0.4,1-1,1c0,0-0.1,0-0.1,0
			c-4.9,0-8.9,1.5-12.7,3C78.9,47.7,75.5,49,71.7,49z"/>
		<rect x="50.7" y="48.5" class="st3" width="6.5" height="35.3"/>
		<rect x="60" y="58" class="st3" width="6.5" height="25.7"/>
		<rect x="69.2" y="61.9" class="st3" width="6.5" height="21.8"/>
		<rect x="96.2" y="70.6" class="st3" width="6.5" height="13.1"/>
		<rect x="104.7" y="75.3" class="st3" width="6.5" height="8.4"/>
		<rect x="11.5" y="41.2" class="st3" width="6.5" height="42.5"/>
		<rect x="2.7" y="32.4" class="st3" width="6.5" height="51.3"/>
	</g>
</g>
</svg>
